<?xml version="1.0" encoding="utf-8" standalone="no"?>
<!DOCTYPE svg PUBLIC "-//W3C//DTD SVG 1.1//EN"
  "http://www.w3.org/Graphics/SVG/1.1/DTD/svg11.dtd">
<svg xmlns:xlink="http://www.w3.org/1999/xlink" width="648pt" height="432pt" viewBox="0 0 648 432" xmlns="http://www.w3.org/2000/svg" version="1.1">
 <metadata>
  <rdf:RDF xmlns:dc="http://purl.org/dc/elements/1.1/" xmlns:cc="http://creativecommons.org/ns#" xmlns:rdf="http://www.w3.org/1999/02/22-rdf-syntax-ns#">
   <cc:Work>
    <dc:type rdf:resource="http://purl.org/dc/dcmitype/StillImage"/>
    <dc:date>2025-08-13T12:20:51.699043</dc:date>
    <dc:format>image/svg+xml</dc:format>
    <dc:creator>
     <cc:Agent>
      <dc:title>Matplotlib v3.10.5, https://matplotlib.org/</dc:title>
     </cc:Agent>
    </dc:creator>
   </cc:Work>
  </rdf:RDF>
 </metadata>
 <defs>
  <style type="text/css">*{stroke-linejoin: round; stroke-linecap: butt}</style>
 </defs>
 <g id="figure_1">
  <g id="patch_1">
   <path d="M 0 432 
L 648 432 
L 648 0 
L 0 0 
z
" style="fill: #ffffff"/>
  </g>
  <g id="axes_1">
   <g id="patch_2">
    <path d="M 81 384.48 
L 583.2 384.48 
L 583.2 51.84 
L 81 51.84 
z
" style="fill: #ffffff"/>
   </g>
   <g id="PathCollection_1">
    <defs>
     <path id="mc1953d0f91" d="M 0 2.236068 
C 0.593012 2.236068 1.161816 2.000462 1.581139 1.581139 
C 2.000462 1.161816 2.236068 0.593012 2.236068 0 
C 2.236068 -0.593012 2.000462 -1.161816 1.581139 -1.581139 
C 1.161816 -2.000462 0.593012 -2.236068 0 -2.236068 
C -0.593012 -2.236068 -1.161816 -2.000462 -1.581139 -1.581139 
C -2.000462 -1.161816 -2.236068 -0.593012 -2.236068 0 
C -2.236068 0.593012 -2.000462 1.161816 -1.581139 1.581139 
C -1.161816 2.000462 -0.593012 2.236068 0 2.236068 
z
" style="stroke: #1f77b4"/>
    </defs>
    <g clip-path="url(#p8a8e010218)">
     <use xlink:href="#mc1953d0f91" x="157.615632" y="203.23872" style="fill: #1f77b4; stroke: #1f77b4"/>
    </g>
   </g>
   <g id="PathCollection_2">
    <defs>
     <path id="m6eddc82771" d="M 0 2.236068 
C 0.593012 2.236068 1.161816 2.000462 1.581139 1.581139 
C 2.000462 1.161816 2.236068 0.593012 2.236068 0 
C 2.236068 -0.593012 2.000462 -1.161816 1.581139 -1.581139 
C 1.161816 -2.000462 0.593012 -2.236068 0 -2.236068 
C -0.593012 -2.236068 -1.161816 -2.000462 -1.581139 -1.581139 
C -2.000462 -1.161816 -2.236068 -0.593012 -2.236068 0 
C -2.236068 0.593012 -2.000462 1.161816 -1.581139 1.581139 
C -1.161816 2.000462 -0.593012 2.236068 0 2.236068 
z
" style="stroke: #ff7f0e"/>
    </defs>
    <g clip-path="url(#p8a8e010218)">
     <use xlink:href="#m6eddc82771" x="196.85754" y="188.79264" style="fill: #ff7f0e; stroke: #ff7f0e"/>
    </g>
   </g>
   <g id="PathCollection_3">
    <defs>
     <path id="m9eb4b4abb8" d="M 0 2.236068 
C 0.593012 2.236068 1.161816 2.000462 1.581139 1.581139 
C 2.000462 1.161816 2.236068 0.593012 2.236068 0 
C 2.236068 -0.593012 2.000462 -1.161816 1.581139 -1.581139 
C 1.161816 -2.000462 0.593012 -2.236068 0 -2.236068 
C -0.593012 -2.236068 -1.161816 -2.000462 -1.581139 -1.581139 
C -2.000462 -1.161816 -2.236068 -0.593012 -2.236068 0 
C -2.236068 0.593012 -2.000462 1.161816 -1.581139 1.581139 
C -1.161816 2.000462 -0.593012 2.236068 0 2.236068 
z
" style="stroke: #2ca02c"/>
    </defs>
    <g clip-path="url(#p8a8e010218)">
     <use xlink:href="#m9eb4b4abb8" x="234.6732" y="170.9964" style="fill: #2ca02c; stroke: #2ca02c"/>
    </g>
   </g>
   <g id="PathCollection_4">
    <defs>
     <path id="m7948fd9602" d="M 0 2.236068 
C 0.593012 2.236068 1.161816 2.000462 1.581139 1.581139 
C 2.000462 1.161816 2.236068 0.593012 2.236068 0 
C 2.236068 -0.593012 2.000462 -1.161816 1.581139 -1.581139 
C 1.161816 -2.000462 0.593012 -2.236068 0 -2.236068 
C -0.593012 -2.236068 -1.161816 -2.000462 -1.581139 -1.581139 
C -2.000462 -1.161816 -2.236068 -0.593012 -2.236068 0 
C -2.236068 0.593012 -2.000462 1.161816 -1.581139 1.581139 
C -1.161816 2.000462 -0.593012 2.236068 0 2.236068 
z
" style="stroke: #d62728"/>
    </defs>
    <g clip-path="url(#p8a8e010218)">
     <use xlink:href="#m7948fd9602" x="251.527032" y="168.858" style="fill: #d62728; stroke: #d62728"/>
    </g>
   </g>
   <g id="PathCollection_5">
    <defs>
     <path id="mfac99b6c8e" d="M 0 2.236068 
C 0.593012 2.236068 1.161816 2.000462 1.581139 1.581139 
C 2.000462 1.161816 2.236068 0.593012 2.236068 0 
C 2.236068 -0.593012 2.000462 -1.161816 1.581139 -1.581139 
C 1.161816 -2.000462 0.593012 -2.236068 0 -2.236068 
C -0.593012 -2.236068 -1.161816 -2.000462 -1.581139 -1.581139 
C -2.000462 -1.161816 -2.236068 -0.593012 -2.236068 0 
C -2.236068 0.593012 -2.000462 1.161816 -1.581139 1.581139 
C -1.161816 2.000462 -0.593012 2.236068 0 2.236068 
z
" style="stroke: #9467bd"/>
    </defs>
    <g clip-path="url(#p8a8e010218)">
     <use xlink:href="#mfac99b6c8e" x="265.729248" y="154.602" style="fill: #9467bd; stroke: #9467bd"/>
    </g>
   </g>
   <g id="PathCollection_6">
    <defs>
     <path id="mf028da5384" d="M 0 2.236068 
C 0.593012 2.236068 1.161816 2.000462 1.581139 1.581139 
C 2.000462 1.161816 2.236068 0.593012 2.236068 0 
C 2.236068 -0.593012 2.000462 -1.161816 1.581139 -1.581139 
C 1.161816 -2.000462 0.593012 -2.236068 0 -2.236068 
C -0.593012 -2.236068 -1.161816 -2.000462 -1.581139 -1.581139 
C -2.000462 -1.161816 -2.236068 -0.593012 -2.236068 0 
C -2.236068 0.593012 -2.000462 1.161816 -1.581139 1.581139 
C -1.161816 2.000462 -0.593012 2.236068 0 2.236068 
z
" style="stroke: #8c564b"/>
    </defs>
    <g clip-path="url(#p8a8e010218)">
     <use xlink:href="#mf028da5384" x="277.520904" y="148.44816" style="fill: #8c564b; stroke: #8c564b"/>
    </g>
   </g>
   <g id="PathCollection_7">
    <defs>
     <path id="m60a84da192" d="M 0 2.236068 
C 0.593012 2.236068 1.161816 2.000462 1.581139 1.581139 
C 2.000462 1.161816 2.236068 0.593012 2.236068 0 
C 2.236068 -0.593012 2.000462 -1.161816 1.581139 -1.581139 
C 1.161816 -2.000462 0.593012 -2.236068 0 -2.236068 
C -0.593012 -2.236068 -1.161816 -2.000462 -1.581139 -1.581139 
C -2.000462 -1.161816 -2.236068 -0.593012 -2.236068 0 
C -2.236068 0.593012 -2.000462 1.161816 -1.581139 1.581139 
C -1.161816 2.000462 -0.593012 2.236068 0 2.236068 
z
" style="stroke: #e377c2"/>
    </defs>
    <g clip-path="url(#p8a8e010218)">
     <use xlink:href="#m60a84da192" x="284.913288" y="146.49984" style="fill: #e377c2; stroke: #e377c2"/>
    </g>
   </g>
   <g id="PathCollection_8">
    <defs>
     <path id="m4b2a6bec25" d="M 0 2.236068 
C 0.593012 2.236068 1.161816 2.000462 1.581139 1.581139 
C 2.000462 1.161816 2.236068 0.593012 2.236068 0 
C 2.236068 -0.593012 2.000462 -1.161816 1.581139 -1.581139 
C 1.161816 -2.000462 0.593012 -2.236068 0 -2.236068 
C -0.593012 -2.236068 -1.161816 -2.000462 -1.581139 -1.581139 
C -2.000462 -1.161816 -2.236068 -0.593012 -2.236068 0 
C -2.236068 0.593012 -2.000462 1.161816 -1.581139 1.581139 
C -1.161816 2.000462 -0.593012 2.236068 0 2.236068 
z
" style="stroke: #7f7f7f"/>
    </defs>
    <g clip-path="url(#p8a8e010218)">
     <use xlink:href="#m4b2a6bec25" x="290.849292" y="145.19304" style="fill: #7f7f7f; stroke: #7f7f7f"/>
    </g>
   </g>
   <g id="PathCollection_9">
    <defs>
     <path id="me4386b80b6" d="M 0 2.236068 
C 0.593012 2.236068 1.161816 2.000462 1.581139 1.581139 
C 2.000462 1.161816 2.236068 0.593012 2.236068 0 
C 2.236068 -0.593012 2.000462 -1.161816 1.581139 -1.581139 
C 1.161816 -2.000462 0.593012 -2.236068 0 -2.236068 
C -0.593012 -2.236068 -1.161816 -2.000462 -1.581139 -1.581139 
C -2.000462 -1.161816 -2.236068 -0.593012 -2.236068 0 
C -2.236068 0.593012 -2.000462 1.161816 -1.581139 1.581139 
C -1.161816 2.000462 -0.593012 2.236068 0 2.236068 
z
" style="stroke: #bcbd22"/>
    </defs>
    <g clip-path="url(#p8a8e010218)">
     <use xlink:href="#me4386b80b6" x="295.74072" y="144.17136" style="fill: #bcbd22; stroke: #bcbd22"/>
    </g>
   </g>
   <g id="PathCollection_10">
    <defs>
     <path id="med9d6052a7" d="M 0 2.236068 
C 0.593012 2.236068 1.161816 2.000462 1.581139 1.581139 
C 2.000462 1.161816 2.236068 0.593012 2.236068 0 
C 2.236068 -0.593012 2.000462 -1.161816 1.581139 -1.581139 
C 1.161816 -2.000462 0.593012 -2.236068 0 -2.236068 
C -0.593012 -2.236068 -1.161816 -2.000462 -1.581139 -1.581139 
C -2.000462 -1.161816 -2.236068 -0.593012 -2.236068 0 
C -2.236068 0.593012 -2.000462 1.161816 -1.581139 1.581139 
C -1.161816 2.000462 -0.593012 2.236068 0 2.236068 
z
" style="stroke: #17becf"/>
    </defs>
    <g clip-path="url(#p8a8e010218)">
     <use xlink:href="#med9d6052a7" x="297.64908" y="143.48232" style="fill: #17becf; stroke: #17becf"/>
    </g>
   </g>
   <g id="PathCollection_11">
    <g clip-path="url(#p8a8e010218)">
     <use xlink:href="#mc1953d0f91" x="298.111104" y="143.4348" style="fill: #1f77b4; stroke: #1f77b4"/>
    </g>
   </g>
   <g id="FillBetweenPolyCollection_1">
    <defs>
     <path id="mc4ec6b11c9" d="M 101.088 -158.883668 
L 101.088 -121.423522 
L 105.957818 -136.666212 
L 110.827636 -149.179181 
L 115.697455 -159.791812 
L 120.567273 -169.004688 
L 125.437091 -177.14325 
L 130.306909 -184.430999 
L 135.176727 -191.028051 
L 140.046545 -197.053016 
L 144.916364 -202.596181 
L 149.786182 -207.727838 
L 154.656 -212.503745 
L 159.525818 -216.968848 
L 164.395636 -221.159863 
L 169.265455 -225.107127 
L 174.135273 -228.835955 
L 179.005091 -232.367633 
L 183.874909 -235.720179 
L 188.744727 -238.908917 
L 193.614545 -241.946928 
L 198.484364 -244.845399 
L 203.354182 -247.61391 
L 208.224 -250.26067 
L 213.093818 -252.792724 
L 217.963636 -255.216148 
L 222.833455 -257.536236 
L 227.703273 -259.757702 
L 232.573091 -261.884885 
L 237.442909 -263.921945 
L 242.312727 -265.873051 
L 247.182545 -267.742508 
L 252.052364 -269.534821 
L 256.922182 -271.254685 
L 261.792 -272.906903 
L 266.661818 -274.496275 
L 271.531636 -276.027471 
L 276.401455 -277.504929 
L 281.271273 -278.932784 
L 286.141091 -280.314819 
L 291.010909 -281.654466 
L 295.880727 -282.954806 
L 300.750545 -284.218595 
L 305.620364 -285.448298 
L 310.490182 -286.646114 
L 315.36 -287.814011 
L 320.229818 -288.953757 
L 325.099636 -290.066941 
L 329.969455 -291.155001 
L 334.839273 -292.219239 
L 339.709091 -293.260844 
L 344.578909 -294.2809 
L 349.448727 -295.280402 
L 354.318545 -296.260268 
L 359.188364 -297.221344 
L 364.058182 -298.164415 
L 368.928 -299.090212 
L 373.797818 -299.999414 
L 378.667636 -300.892655 
L 383.537455 -301.770532 
L 388.407273 -302.633603 
L 393.277091 -303.482392 
L 398.146909 -304.317396 
L 403.016727 -305.139079 
L 407.886545 -305.947886 
L 412.756364 -306.744232 
L 417.626182 -307.528515 
L 422.496 -308.301111 
L 427.365818 -309.062378 
L 432.235636 -309.812657 
L 437.105455 -310.552271 
L 441.975273 -311.28153 
L 446.845091 -312.000729 
L 451.714909 -312.710152 
L 456.584727 -313.410067 
L 461.454545 -314.100733 
L 466.324364 -314.782397 
L 471.194182 -315.455298 
L 476.064 -316.119662 
L 480.933818 -316.775709 
L 485.803636 -317.423648 
L 490.673455 -318.063681 
L 495.543273 -318.696003 
L 500.413091 -319.3208 
L 505.282909 -319.938252 
L 510.152727 -320.548533 
L 515.022545 -321.151811 
L 519.892364 -321.748246 
L 524.762182 -322.337994 
L 529.632 -322.921206 
L 534.501818 -323.498026 
L 539.371636 -324.068595 
L 544.241455 -324.633049 
L 549.111273 -325.191519 
L 553.981091 -325.744131 
L 558.850909 -326.291009 
L 563.720727 -326.832272 
L 568.590545 -327.368034 
L 573.460364 -327.898408 
L 578.330182 -328.423502 
L 583.2 -328.943421 
L 583.2 -348.361241 
L 583.2 -348.361241 
L 578.330182 -347.679355 
L 573.460364 -346.990818 
L 568.590545 -346.295501 
L 563.720727 -345.593269 
L 558.850909 -344.883984 
L 553.981091 -344.167504 
L 549.111273 -343.443684 
L 544.241455 -342.712372 
L 539.371636 -341.973414 
L 534.501818 -341.22665 
L 529.632 -340.471914 
L 524.762182 -339.709036 
L 519.892364 -338.937841 
L 515.022545 -338.158148 
L 510.152727 -337.36977 
L 505.282909 -336.572513 
L 500.413091 -335.766178 
L 495.543273 -334.95056 
L 490.673455 -334.125444 
L 485.803636 -333.290611 
L 480.933818 -332.445834 
L 476.064 -331.590876 
L 471.194182 -330.725494 
L 466.324364 -329.849436 
L 461.454545 -328.962441 
L 456.584727 -328.064239 
L 451.714909 -327.154549 
L 446.845091 -326.233082 
L 441.975273 -325.299537 
L 437.105455 -324.353603 
L 432.235636 -323.394957 
L 427.365818 -322.423264 
L 422.496 -321.438177 
L 417.626182 -320.439336 
L 412.756364 -319.426368 
L 407.886545 -318.398885 
L 403.016727 -317.356486 
L 398.146909 -316.298756 
L 393.277091 -315.225261 
L 388.407273 -314.135556 
L 383.537455 -313.029176 
L 378.667636 -311.905643 
L 373.797818 -310.76446 
L 368.928 -309.605115 
L 364.058182 -308.427079 
L 359.188364 -307.229807 
L 354.318545 -306.012739 
L 349.448727 -304.775301 
L 344.578909 -303.516906 
L 339.709091 -302.236956 
L 334.839273 -300.934848 
L 329.969455 -299.609971 
L 325.099636 -298.261721 
L 320.229818 -296.889497 
L 315.36 -295.492717 
L 310.490182 -294.070825 
L 305.620364 -292.623302 
L 300.750545 -291.149681 
L 295.880727 -289.649563 
L 291.010909 -288.122634 
L 286.141091 -286.568677 
L 281.271273 -284.987587 
L 276.401455 -283.379369 
L 271.531636 -281.744127 
L 266.661818 -280.082026 
L 261.792 -278.39322 
L 256.922182 -276.677742 
L 252.052364 -274.935366 
L 247.182545 -273.165433 
L 242.312727 -271.366688 
L 237.442909 -269.537139 
L 232.573091 -267.673979 
L 227.703273 -265.773564 
L 222.833455 -263.831456 
L 217.963636 -261.842487 
L 213.093818 -259.800837 
L 208.224 -257.700076 
L 203.354182 -255.533183 
L 198.484364 -253.29251 
L 193.614545 -250.969706 
L 188.744727 -248.555594 
L 183.874909 -246.04 
L 179.005091 -243.411534 
L 174.135273 -240.657307 
L 169.265455 -237.762573 
L 164.395636 -234.710274 
L 159.525818 -231.480452 
L 154.656 -228.04947 
L 149.786182 -224.388983 
L 144.916364 -220.464521 
L 140.046545 -216.233528 
L 135.176727 -211.64255 
L 130.306909 -206.623097 
L 125.437091 -201.085359 
L 120.567273 -194.908252 
L 115.697455 -187.922908 
L 110.827636 -179.883588 
L 105.957818 -170.412454 
L 101.088 -158.883668 
z
" style="stroke: #ff0000; stroke-opacity: 0.2"/>
    </defs>
    <g clip-path="url(#p8a8e010218)">
     <use xlink:href="#mc4ec6b11c9" x="0" y="432" style="fill: #ff0000; fill-opacity: 0.2; stroke: #ff0000; stroke-opacity: 0.2"/>
    </g>
   </g>
   <g id="matplotlib.axis_1">
    <g id="xtick_1">
     <g id="line2d_1">
      <path d="M 81 384.48 
L 81 51.84 
" clip-path="url(#p8a8e010218)" style="fill: none; stroke-dasharray: 2.96,1.28; stroke-dashoffset: 0; stroke: #b0b0b0; stroke-opacity: 0.6; stroke-width: 0.8"/>
     </g>
     <g id="line2d_2">
      <defs>
       <path id="m148e43661f" d="M 0 0 
L 0 3.5 
" style="stroke: #000000; stroke-width: 0.8"/>
      </defs>
      <g>
       <use xlink:href="#m148e43661f" x="81" y="384.48" style="stroke: #000000; stroke-width: 0.8"/>
      </g>
     </g>
     <g id="text_1">
      <!-- 0 -->
      <g transform="translate(76.54625 402.117813) scale(0.14 -0.14)">
       <defs>
        <path id="DejaVuSans-30" d="M 2034 4250 
Q 1547 4250 1301 3770 
Q 1056 3291 1056 2328 
Q 1056 1369 1301 889 
Q 1547 409 2034 409 
Q 2525 409 2770 889 
Q 3016 1369 3016 2328 
Q 3016 3291 2770 3770 
Q 2525 4250 2034 4250 
z
M 2034 4750 
Q 2819 4750 3233 4129 
Q 3647 3509 3647 2328 
Q 3647 1150 3233 529 
Q 2819 -91 2034 -91 
Q 1250 -91 836 529 
Q 422 1150 422 2328 
Q 422 3509 836 4129 
Q 1250 4750 2034 4750 
z
" transform="scale(0.015625)"/>
       </defs>
       <use xlink:href="#DejaVuSans-30"/>
      </g>
     </g>
    </g>
    <g id="xtick_2">
     <g id="line2d_3">
      <path d="M 181.44 384.48 
L 181.44 51.84 
" clip-path="url(#p8a8e010218)" style="fill: none; stroke-dasharray: 2.96,1.28; stroke-dashoffset: 0; stroke: #b0b0b0; stroke-opacity: 0.6; stroke-width: 0.8"/>
     </g>
     <g id="line2d_4">
      <g>
       <use xlink:href="#m148e43661f" x="181.44" y="384.48" style="stroke: #000000; stroke-width: 0.8"/>
      </g>
     </g>
     <g id="text_2">
      <!-- 10000 -->
      <g transform="translate(159.17125 402.117813) scale(0.14 -0.14)">
       <defs>
        <path id="DejaVuSans-31" d="M 794 531 
L 1825 531 
L 1825 4091 
L 703 3866 
L 703 4441 
L 1819 4666 
L 2450 4666 
L 2450 531 
L 3481 531 
L 3481 0 
L 794 0 
L 794 531 
z
" transform="scale(0.015625)"/>
       </defs>
       <use xlink:href="#DejaVuSans-31"/>
       <use xlink:href="#DejaVuSans-30" transform="translate(63.623047 0)"/>
       <use xlink:href="#DejaVuSans-30" transform="translate(127.246094 0)"/>
       <use xlink:href="#DejaVuSans-30" transform="translate(190.869141 0)"/>
       <use xlink:href="#DejaVuSans-30" transform="translate(254.492188 0)"/>
      </g>
     </g>
    </g>
    <g id="xtick_3">
     <g id="line2d_5">
      <path d="M 281.88 384.48 
L 281.88 51.84 
" clip-path="url(#p8a8e010218)" style="fill: none; stroke-dasharray: 2.96,1.28; stroke-dashoffset: 0; stroke: #b0b0b0; stroke-opacity: 0.6; stroke-width: 0.8"/>
     </g>
     <g id="line2d_6">
      <g>
       <use xlink:href="#m148e43661f" x="281.88" y="384.48" style="stroke: #000000; stroke-width: 0.8"/>
      </g>
     </g>
     <g id="text_3">
      <!-- 20000 -->
      <g transform="translate(259.61125 402.117813) scale(0.14 -0.14)">
       <defs>
        <path id="DejaVuSans-32" d="M 1228 531 
L 3431 531 
L 3431 0 
L 469 0 
L 469 531 
Q 828 903 1448 1529 
Q 2069 2156 2228 2338 
Q 2531 2678 2651 2914 
Q 2772 3150 2772 3378 
Q 2772 3750 2511 3984 
Q 2250 4219 1831 4219 
Q 1534 4219 1204 4116 
Q 875 4013 500 3803 
L 500 4441 
Q 881 4594 1212 4672 
Q 1544 4750 1819 4750 
Q 2544 4750 2975 4387 
Q 3406 4025 3406 3419 
Q 3406 3131 3298 2873 
Q 3191 2616 2906 2266 
Q 2828 2175 2409 1742 
Q 1991 1309 1228 531 
z
" transform="scale(0.015625)"/>
       </defs>
       <use xlink:href="#DejaVuSans-32"/>
       <use xlink:href="#DejaVuSans-30" transform="translate(63.623047 0)"/>
       <use xlink:href="#DejaVuSans-30" transform="translate(127.246094 0)"/>
       <use xlink:href="#DejaVuSans-30" transform="translate(190.869141 0)"/>
       <use xlink:href="#DejaVuSans-30" transform="translate(254.492188 0)"/>
      </g>
     </g>
    </g>
    <g id="xtick_4">
     <g id="line2d_7">
      <path d="M 382.32 384.48 
L 382.32 51.84 
" clip-path="url(#p8a8e010218)" style="fill: none; stroke-dasharray: 2.96,1.28; stroke-dashoffset: 0; stroke: #b0b0b0; stroke-opacity: 0.6; stroke-width: 0.8"/>
     </g>
     <g id="line2d_8">
      <g>
       <use xlink:href="#m148e43661f" x="382.32" y="384.48" style="stroke: #000000; stroke-width: 0.8"/>
      </g>
     </g>
     <g id="text_4">
      <!-- 30000 -->
      <g transform="translate(360.05125 402.117813) scale(0.14 -0.14)">
       <defs>
        <path id="DejaVuSans-33" d="M 2597 2516 
Q 3050 2419 3304 2112 
Q 3559 1806 3559 1356 
Q 3559 666 3084 287 
Q 2609 -91 1734 -91 
Q 1441 -91 1130 -33 
Q 819 25 488 141 
L 488 750 
Q 750 597 1062 519 
Q 1375 441 1716 441 
Q 2309 441 2620 675 
Q 2931 909 2931 1356 
Q 2931 1769 2642 2001 
Q 2353 2234 1838 2234 
L 1294 2234 
L 1294 2753 
L 1863 2753 
Q 2328 2753 2575 2939 
Q 2822 3125 2822 3475 
Q 2822 3834 2567 4026 
Q 2313 4219 1838 4219 
Q 1578 4219 1281 4162 
Q 984 4106 628 3988 
L 628 4550 
Q 988 4650 1302 4700 
Q 1616 4750 1894 4750 
Q 2613 4750 3031 4423 
Q 3450 4097 3450 3541 
Q 3450 3153 3228 2886 
Q 3006 2619 2597 2516 
z
" transform="scale(0.015625)"/>
       </defs>
       <use xlink:href="#DejaVuSans-33"/>
       <use xlink:href="#DejaVuSans-30" transform="translate(63.623047 0)"/>
       <use xlink:href="#DejaVuSans-30" transform="translate(127.246094 0)"/>
       <use xlink:href="#DejaVuSans-30" transform="translate(190.869141 0)"/>
       <use xlink:href="#DejaVuSans-30" transform="translate(254.492188 0)"/>
      </g>
     </g>
    </g>
    <g id="xtick_5">
     <g id="line2d_9">
      <path d="M 482.76 384.48 
L 482.76 51.84 
" clip-path="url(#p8a8e010218)" style="fill: none; stroke-dasharray: 2.96,1.28; stroke-dashoffset: 0; stroke: #b0b0b0; stroke-opacity: 0.6; stroke-width: 0.8"/>
     </g>
     <g id="line2d_10">
      <g>
       <use xlink:href="#m148e43661f" x="482.76" y="384.48" style="stroke: #000000; stroke-width: 0.8"/>
      </g>
     </g>
     <g id="text_5">
      <!-- 40000 -->
      <g transform="translate(460.49125 402.117813) scale(0.14 -0.14)">
       <defs>
        <path id="DejaVuSans-34" d="M 2419 4116 
L 825 1625 
L 2419 1625 
L 2419 4116 
z
M 2253 4666 
L 3047 4666 
L 3047 1625 
L 3713 1625 
L 3713 1100 
L 3047 1100 
L 3047 0 
L 2419 0 
L 2419 1100 
L 313 1100 
L 313 1709 
L 2253 4666 
z
" transform="scale(0.015625)"/>
       </defs>
       <use xlink:href="#DejaVuSans-34"/>
       <use xlink:href="#DejaVuSans-30" transform="translate(63.623047 0)"/>
       <use xlink:href="#DejaVuSans-30" transform="translate(127.246094 0)"/>
       <use xlink:href="#DejaVuSans-30" transform="translate(190.869141 0)"/>
       <use xlink:href="#DejaVuSans-30" transform="translate(254.492188 0)"/>
      </g>
     </g>
    </g>
    <g id="xtick_6">
     <g id="line2d_11">
      <path d="M 583.2 384.48 
L 583.2 51.84 
" clip-path="url(#p8a8e010218)" style="fill: none; stroke-dasharray: 2.96,1.28; stroke-dashoffset: 0; stroke: #b0b0b0; stroke-opacity: 0.6; stroke-width: 0.8"/>
     </g>
     <g id="line2d_12">
      <g>
       <use xlink:href="#m148e43661f" x="583.2" y="384.48" style="stroke: #000000; stroke-width: 0.8"/>
      </g>
     </g>
     <g id="text_6">
      <!-- 50000 -->
      <g transform="translate(560.93125 402.117813) scale(0.14 -0.14)">
       <defs>
        <path id="DejaVuSans-35" d="M 691 4666 
L 3169 4666 
L 3169 4134 
L 1269 4134 
L 1269 2991 
Q 1406 3038 1543 3061 
Q 1681 3084 1819 3084 
Q 2600 3084 3056 2656 
Q 3513 2228 3513 1497 
Q 3513 744 3044 326 
Q 2575 -91 1722 -91 
Q 1428 -91 1123 -41 
Q 819 9 494 109 
L 494 744 
Q 775 591 1075 516 
Q 1375 441 1709 441 
Q 2250 441 2565 725 
Q 2881 1009 2881 1497 
Q 2881 1984 2565 2268 
Q 2250 2553 1709 2553 
Q 1456 2553 1204 2497 
Q 953 2441 691 2322 
L 691 4666 
z
" transform="scale(0.015625)"/>
       </defs>
       <use xlink:href="#DejaVuSans-35"/>
       <use xlink:href="#DejaVuSans-30" transform="translate(63.623047 0)"/>
       <use xlink:href="#DejaVuSans-30" transform="translate(127.246094 0)"/>
       <use xlink:href="#DejaVuSans-30" transform="translate(190.869141 0)"/>
       <use xlink:href="#DejaVuSans-30" transform="translate(254.492188 0)"/>
      </g>
     </g>
    </g>
    <g id="text_7">
     <!-- Total File Extensions Recorded -->
     <g transform="translate(226.414219 419.667188) scale(0.14 -0.14)">
      <defs>
       <path id="DejaVuSans-54" d="M -19 4666 
L 3928 4666 
L 3928 4134 
L 2272 4134 
L 2272 0 
L 1638 0 
L 1638 4134 
L -19 4134 
L -19 4666 
z
" transform="scale(0.015625)"/>
       <path id="DejaVuSans-6f" d="M 1959 3097 
Q 1497 3097 1228 2736 
Q 959 2375 959 1747 
Q 959 1119 1226 758 
Q 1494 397 1959 397 
Q 2419 397 2687 759 
Q 2956 1122 2956 1747 
Q 2956 2369 2687 2733 
Q 2419 3097 1959 3097 
z
M 1959 3584 
Q 2709 3584 3137 3096 
Q 3566 2609 3566 1747 
Q 3566 888 3137 398 
Q 2709 -91 1959 -91 
Q 1206 -91 779 398 
Q 353 888 353 1747 
Q 353 2609 779 3096 
Q 1206 3584 1959 3584 
z
" transform="scale(0.015625)"/>
       <path id="DejaVuSans-74" d="M 1172 4494 
L 1172 3500 
L 2356 3500 
L 2356 3053 
L 1172 3053 
L 1172 1153 
Q 1172 725 1289 603 
Q 1406 481 1766 481 
L 2356 481 
L 2356 0 
L 1766 0 
Q 1100 0 847 248 
Q 594 497 594 1153 
L 594 3053 
L 172 3053 
L 172 3500 
L 594 3500 
L 594 4494 
L 1172 4494 
z
" transform="scale(0.015625)"/>
       <path id="DejaVuSans-61" d="M 2194 1759 
Q 1497 1759 1228 1600 
Q 959 1441 959 1056 
Q 959 750 1161 570 
Q 1363 391 1709 391 
Q 2188 391 2477 730 
Q 2766 1069 2766 1631 
L 2766 1759 
L 2194 1759 
z
M 3341 1997 
L 3341 0 
L 2766 0 
L 2766 531 
Q 2569 213 2275 61 
Q 1981 -91 1556 -91 
Q 1019 -91 701 211 
Q 384 513 384 1019 
Q 384 1609 779 1909 
Q 1175 2209 1959 2209 
L 2766 2209 
L 2766 2266 
Q 2766 2663 2505 2880 
Q 2244 3097 1772 3097 
Q 1472 3097 1187 3025 
Q 903 2953 641 2809 
L 641 3341 
Q 956 3463 1253 3523 
Q 1550 3584 1831 3584 
Q 2591 3584 2966 3190 
Q 3341 2797 3341 1997 
z
" transform="scale(0.015625)"/>
       <path id="DejaVuSans-6c" d="M 603 4863 
L 1178 4863 
L 1178 0 
L 603 0 
L 603 4863 
z
" transform="scale(0.015625)"/>
       <path id="DejaVuSans-20" transform="scale(0.015625)"/>
       <path id="DejaVuSans-46" d="M 628 4666 
L 3309 4666 
L 3309 4134 
L 1259 4134 
L 1259 2759 
L 3109 2759 
L 3109 2228 
L 1259 2228 
L 1259 0 
L 628 0 
L 628 4666 
z
" transform="scale(0.015625)"/>
       <path id="DejaVuSans-69" d="M 603 3500 
L 1178 3500 
L 1178 0 
L 603 0 
L 603 3500 
z
M 603 4863 
L 1178 4863 
L 1178 4134 
L 603 4134 
L 603 4863 
z
" transform="scale(0.015625)"/>
       <path id="DejaVuSans-65" d="M 3597 1894 
L 3597 1613 
L 953 1613 
Q 991 1019 1311 708 
Q 1631 397 2203 397 
Q 2534 397 2845 478 
Q 3156 559 3463 722 
L 3463 178 
Q 3153 47 2828 -22 
Q 2503 -91 2169 -91 
Q 1331 -91 842 396 
Q 353 884 353 1716 
Q 353 2575 817 3079 
Q 1281 3584 2069 3584 
Q 2775 3584 3186 3129 
Q 3597 2675 3597 1894 
z
M 3022 2063 
Q 3016 2534 2758 2815 
Q 2500 3097 2075 3097 
Q 1594 3097 1305 2825 
Q 1016 2553 972 2059 
L 3022 2063 
z
" transform="scale(0.015625)"/>
       <path id="DejaVuSans-45" d="M 628 4666 
L 3578 4666 
L 3578 4134 
L 1259 4134 
L 1259 2753 
L 3481 2753 
L 3481 2222 
L 1259 2222 
L 1259 531 
L 3634 531 
L 3634 0 
L 628 0 
L 628 4666 
z
" transform="scale(0.015625)"/>
       <path id="DejaVuSans-78" d="M 3513 3500 
L 2247 1797 
L 3578 0 
L 2900 0 
L 1881 1375 
L 863 0 
L 184 0 
L 1544 1831 
L 300 3500 
L 978 3500 
L 1906 2253 
L 2834 3500 
L 3513 3500 
z
" transform="scale(0.015625)"/>
       <path id="DejaVuSans-6e" d="M 3513 2113 
L 3513 0 
L 2938 0 
L 2938 2094 
Q 2938 2591 2744 2837 
Q 2550 3084 2163 3084 
Q 1697 3084 1428 2787 
Q 1159 2491 1159 1978 
L 1159 0 
L 581 0 
L 581 3500 
L 1159 3500 
L 1159 2956 
Q 1366 3272 1645 3428 
Q 1925 3584 2291 3584 
Q 2894 3584 3203 3211 
Q 3513 2838 3513 2113 
z
" transform="scale(0.015625)"/>
       <path id="DejaVuSans-73" d="M 2834 3397 
L 2834 2853 
Q 2591 2978 2328 3040 
Q 2066 3103 1784 3103 
Q 1356 3103 1142 2972 
Q 928 2841 928 2578 
Q 928 2378 1081 2264 
Q 1234 2150 1697 2047 
L 1894 2003 
Q 2506 1872 2764 1633 
Q 3022 1394 3022 966 
Q 3022 478 2636 193 
Q 2250 -91 1575 -91 
Q 1294 -91 989 -36 
Q 684 19 347 128 
L 347 722 
Q 666 556 975 473 
Q 1284 391 1588 391 
Q 1994 391 2212 530 
Q 2431 669 2431 922 
Q 2431 1156 2273 1281 
Q 2116 1406 1581 1522 
L 1381 1569 
Q 847 1681 609 1914 
Q 372 2147 372 2553 
Q 372 3047 722 3315 
Q 1072 3584 1716 3584 
Q 2034 3584 2315 3537 
Q 2597 3491 2834 3397 
z
" transform="scale(0.015625)"/>
       <path id="DejaVuSans-52" d="M 2841 2188 
Q 3044 2119 3236 1894 
Q 3428 1669 3622 1275 
L 4263 0 
L 3584 0 
L 2988 1197 
Q 2756 1666 2539 1819 
Q 2322 1972 1947 1972 
L 1259 1972 
L 1259 0 
L 628 0 
L 628 4666 
L 2053 4666 
Q 2853 4666 3247 4331 
Q 3641 3997 3641 3322 
Q 3641 2881 3436 2590 
Q 3231 2300 2841 2188 
z
M 1259 4147 
L 1259 2491 
L 2053 2491 
Q 2509 2491 2742 2702 
Q 2975 2913 2975 3322 
Q 2975 3731 2742 3939 
Q 2509 4147 2053 4147 
L 1259 4147 
z
" transform="scale(0.015625)"/>
       <path id="DejaVuSans-63" d="M 3122 3366 
L 3122 2828 
Q 2878 2963 2633 3030 
Q 2388 3097 2138 3097 
Q 1578 3097 1268 2742 
Q 959 2388 959 1747 
Q 959 1106 1268 751 
Q 1578 397 2138 397 
Q 2388 397 2633 464 
Q 2878 531 3122 666 
L 3122 134 
Q 2881 22 2623 -34 
Q 2366 -91 2075 -91 
Q 1284 -91 818 406 
Q 353 903 353 1747 
Q 353 2603 823 3093 
Q 1294 3584 2113 3584 
Q 2378 3584 2631 3529 
Q 2884 3475 3122 3366 
z
" transform="scale(0.015625)"/>
       <path id="DejaVuSans-72" d="M 2631 2963 
Q 2534 3019 2420 3045 
Q 2306 3072 2169 3072 
Q 1681 3072 1420 2755 
Q 1159 2438 1159 1844 
L 1159 0 
L 581 0 
L 581 3500 
L 1159 3500 
L 1159 2956 
Q 1341 3275 1631 3429 
Q 1922 3584 2338 3584 
Q 2397 3584 2469 3576 
Q 2541 3569 2628 3553 
L 2631 2963 
z
" transform="scale(0.015625)"/>
       <path id="DejaVuSans-64" d="M 2906 2969 
L 2906 4863 
L 3481 4863 
L 3481 0 
L 2906 0 
L 2906 525 
Q 2725 213 2448 61 
Q 2172 -91 1784 -91 
Q 1150 -91 751 415 
Q 353 922 353 1747 
Q 353 2572 751 3078 
Q 1150 3584 1784 3584 
Q 2172 3584 2448 3432 
Q 2725 3281 2906 2969 
z
M 947 1747 
Q 947 1113 1208 752 
Q 1469 391 1925 391 
Q 2381 391 2643 752 
Q 2906 1113 2906 1747 
Q 2906 2381 2643 2742 
Q 2381 3103 1925 3103 
Q 1469 3103 1208 2742 
Q 947 2381 947 1747 
z
" transform="scale(0.015625)"/>
      </defs>
      <use xlink:href="#DejaVuSans-54"/>
      <use xlink:href="#DejaVuSans-6f" transform="translate(44.083984 0)"/>
      <use xlink:href="#DejaVuSans-74" transform="translate(105.265625 0)"/>
      <use xlink:href="#DejaVuSans-61" transform="translate(144.474609 0)"/>
      <use xlink:href="#DejaVuSans-6c" transform="translate(205.753906 0)"/>
      <use xlink:href="#DejaVuSans-20" transform="translate(233.537109 0)"/>
      <use xlink:href="#DejaVuSans-46" transform="translate(265.324219 0)"/>
      <use xlink:href="#DejaVuSans-69" transform="translate(315.59375 0)"/>
      <use xlink:href="#DejaVuSans-6c" transform="translate(343.376953 0)"/>
      <use xlink:href="#DejaVuSans-65" transform="translate(371.160156 0)"/>
      <use xlink:href="#DejaVuSans-20" transform="translate(432.683594 0)"/>
      <use xlink:href="#DejaVuSans-45" transform="translate(464.470703 0)"/>
      <use xlink:href="#DejaVuSans-78" transform="translate(527.654297 0)"/>
      <use xlink:href="#DejaVuSans-74" transform="translate(586.833984 0)"/>
      <use xlink:href="#DejaVuSans-65" transform="translate(626.042969 0)"/>
      <use xlink:href="#DejaVuSans-6e" transform="translate(687.566406 0)"/>
      <use xlink:href="#DejaVuSans-73" transform="translate(750.945312 0)"/>
      <use xlink:href="#DejaVuSans-69" transform="translate(803.044922 0)"/>
      <use xlink:href="#DejaVuSans-6f" transform="translate(830.828125 0)"/>
      <use xlink:href="#DejaVuSans-6e" transform="translate(892.009766 0)"/>
      <use xlink:href="#DejaVuSans-73" transform="translate(955.388672 0)"/>
      <use xlink:href="#DejaVuSans-20" transform="translate(1007.488281 0)"/>
      <use xlink:href="#DejaVuSans-52" transform="translate(1039.275391 0)"/>
      <use xlink:href="#DejaVuSans-65" transform="translate(1104.257812 0)"/>
      <use xlink:href="#DejaVuSans-63" transform="translate(1165.78125 0)"/>
      <use xlink:href="#DejaVuSans-6f" transform="translate(1220.761719 0)"/>
      <use xlink:href="#DejaVuSans-72" transform="translate(1281.943359 0)"/>
      <use xlink:href="#DejaVuSans-64" transform="translate(1321.306641 0)"/>
      <use xlink:href="#DejaVuSans-65" transform="translate(1384.783203 0)"/>
      <use xlink:href="#DejaVuSans-64" transform="translate(1446.306641 0)"/>
     </g>
    </g>
   </g>
   <g id="matplotlib.axis_2">
    <g id="ytick_1">
     <g id="line2d_13">
      <path d="M 81 384.48 
L 583.2 384.48 
" clip-path="url(#p8a8e010218)" style="fill: none; stroke-dasharray: 2.96,1.28; stroke-dashoffset: 0; stroke: #b0b0b0; stroke-opacity: 0.6; stroke-width: 0.8"/>
     </g>
     <g id="line2d_14">
      <defs>
       <path id="m6a53e52ca7" d="M 0 0 
L -3.5 0 
" style="stroke: #000000; stroke-width: 0.8"/>
      </defs>
      <g>
       <use xlink:href="#m6a53e52ca7" x="81" y="384.48" style="stroke: #000000; stroke-width: 0.8"/>
      </g>
     </g>
     <g id="text_8">
      <!-- 0 -->
      <g transform="translate(65.0925 389.798906) scale(0.14 -0.14)">
       <use xlink:href="#DejaVuSans-30"/>
      </g>
     </g>
    </g>
    <g id="ytick_2">
     <g id="line2d_15">
      <path d="M 81 336.96 
L 583.2 336.96 
" clip-path="url(#p8a8e010218)" style="fill: none; stroke-dasharray: 2.96,1.28; stroke-dashoffset: 0; stroke: #b0b0b0; stroke-opacity: 0.6; stroke-width: 0.8"/>
     </g>
     <g id="line2d_16">
      <g>
       <use xlink:href="#m6a53e52ca7" x="81" y="336.96" style="stroke: #000000; stroke-width: 0.8"/>
      </g>
     </g>
     <g id="text_9">
      <!-- 2000 -->
      <g transform="translate(38.37 342.278906) scale(0.14 -0.14)">
       <use xlink:href="#DejaVuSans-32"/>
       <use xlink:href="#DejaVuSans-30" transform="translate(63.623047 0)"/>
       <use xlink:href="#DejaVuSans-30" transform="translate(127.246094 0)"/>
       <use xlink:href="#DejaVuSans-30" transform="translate(190.869141 0)"/>
      </g>
     </g>
    </g>
    <g id="ytick_3">
     <g id="line2d_17">
      <path d="M 81 289.44 
L 583.2 289.44 
" clip-path="url(#p8a8e010218)" style="fill: none; stroke-dasharray: 2.96,1.28; stroke-dashoffset: 0; stroke: #b0b0b0; stroke-opacity: 0.6; stroke-width: 0.8"/>
     </g>
     <g id="line2d_18">
      <g>
       <use xlink:href="#m6a53e52ca7" x="81" y="289.44" style="stroke: #000000; stroke-width: 0.8"/>
      </g>
     </g>
     <g id="text_10">
      <!-- 4000 -->
      <g transform="translate(38.37 294.758906) scale(0.14 -0.14)">
       <use xlink:href="#DejaVuSans-34"/>
       <use xlink:href="#DejaVuSans-30" transform="translate(63.623047 0)"/>
       <use xlink:href="#DejaVuSans-30" transform="translate(127.246094 0)"/>
       <use xlink:href="#DejaVuSans-30" transform="translate(190.869141 0)"/>
      </g>
     </g>
    </g>
    <g id="ytick_4">
     <g id="line2d_19">
      <path d="M 81 241.92 
L 583.2 241.92 
" clip-path="url(#p8a8e010218)" style="fill: none; stroke-dasharray: 2.96,1.28; stroke-dashoffset: 0; stroke: #b0b0b0; stroke-opacity: 0.6; stroke-width: 0.8"/>
     </g>
     <g id="line2d_20">
      <g>
       <use xlink:href="#m6a53e52ca7" x="81" y="241.92" style="stroke: #000000; stroke-width: 0.8"/>
      </g>
     </g>
     <g id="text_11">
      <!-- 6000 -->
      <g transform="translate(38.37 247.238906) scale(0.14 -0.14)">
       <defs>
        <path id="DejaVuSans-36" d="M 2113 2584 
Q 1688 2584 1439 2293 
Q 1191 2003 1191 1497 
Q 1191 994 1439 701 
Q 1688 409 2113 409 
Q 2538 409 2786 701 
Q 3034 994 3034 1497 
Q 3034 2003 2786 2293 
Q 2538 2584 2113 2584 
z
M 3366 4563 
L 3366 3988 
Q 3128 4100 2886 4159 
Q 2644 4219 2406 4219 
Q 1781 4219 1451 3797 
Q 1122 3375 1075 2522 
Q 1259 2794 1537 2939 
Q 1816 3084 2150 3084 
Q 2853 3084 3261 2657 
Q 3669 2231 3669 1497 
Q 3669 778 3244 343 
Q 2819 -91 2113 -91 
Q 1303 -91 875 529 
Q 447 1150 447 2328 
Q 447 3434 972 4092 
Q 1497 4750 2381 4750 
Q 2619 4750 2861 4703 
Q 3103 4656 3366 4563 
z
" transform="scale(0.015625)"/>
       </defs>
       <use xlink:href="#DejaVuSans-36"/>
       <use xlink:href="#DejaVuSans-30" transform="translate(63.623047 0)"/>
       <use xlink:href="#DejaVuSans-30" transform="translate(127.246094 0)"/>
       <use xlink:href="#DejaVuSans-30" transform="translate(190.869141 0)"/>
      </g>
     </g>
    </g>
    <g id="ytick_5">
     <g id="line2d_21">
      <path d="M 81 194.4 
L 583.2 194.4 
" clip-path="url(#p8a8e010218)" style="fill: none; stroke-dasharray: 2.96,1.28; stroke-dashoffset: 0; stroke: #b0b0b0; stroke-opacity: 0.6; stroke-width: 0.8"/>
     </g>
     <g id="line2d_22">
      <g>
       <use xlink:href="#m6a53e52ca7" x="81" y="194.4" style="stroke: #000000; stroke-width: 0.8"/>
      </g>
     </g>
     <g id="text_12">
      <!-- 8000 -->
      <g transform="translate(38.37 199.718906) scale(0.14 -0.14)">
       <defs>
        <path id="DejaVuSans-38" d="M 2034 2216 
Q 1584 2216 1326 1975 
Q 1069 1734 1069 1313 
Q 1069 891 1326 650 
Q 1584 409 2034 409 
Q 2484 409 2743 651 
Q 3003 894 3003 1313 
Q 3003 1734 2745 1975 
Q 2488 2216 2034 2216 
z
M 1403 2484 
Q 997 2584 770 2862 
Q 544 3141 544 3541 
Q 544 4100 942 4425 
Q 1341 4750 2034 4750 
Q 2731 4750 3128 4425 
Q 3525 4100 3525 3541 
Q 3525 3141 3298 2862 
Q 3072 2584 2669 2484 
Q 3125 2378 3379 2068 
Q 3634 1759 3634 1313 
Q 3634 634 3220 271 
Q 2806 -91 2034 -91 
Q 1263 -91 848 271 
Q 434 634 434 1313 
Q 434 1759 690 2068 
Q 947 2378 1403 2484 
z
M 1172 3481 
Q 1172 3119 1398 2916 
Q 1625 2713 2034 2713 
Q 2441 2713 2670 2916 
Q 2900 3119 2900 3481 
Q 2900 3844 2670 4047 
Q 2441 4250 2034 4250 
Q 1625 4250 1398 4047 
Q 1172 3844 1172 3481 
z
" transform="scale(0.015625)"/>
       </defs>
       <use xlink:href="#DejaVuSans-38"/>
       <use xlink:href="#DejaVuSans-30" transform="translate(63.623047 0)"/>
       <use xlink:href="#DejaVuSans-30" transform="translate(127.246094 0)"/>
       <use xlink:href="#DejaVuSans-30" transform="translate(190.869141 0)"/>
      </g>
     </g>
    </g>
    <g id="ytick_6">
     <g id="line2d_23">
      <path d="M 81 146.88 
L 583.2 146.88 
" clip-path="url(#p8a8e010218)" style="fill: none; stroke-dasharray: 2.96,1.28; stroke-dashoffset: 0; stroke: #b0b0b0; stroke-opacity: 0.6; stroke-width: 0.8"/>
     </g>
     <g id="line2d_24">
      <g>
       <use xlink:href="#m6a53e52ca7" x="81" y="146.88" style="stroke: #000000; stroke-width: 0.8"/>
      </g>
     </g>
     <g id="text_13">
      <!-- 10000 -->
      <g transform="translate(29.4625 152.198906) scale(0.14 -0.14)">
       <use xlink:href="#DejaVuSans-31"/>
       <use xlink:href="#DejaVuSans-30" transform="translate(63.623047 0)"/>
       <use xlink:href="#DejaVuSans-30" transform="translate(127.246094 0)"/>
       <use xlink:href="#DejaVuSans-30" transform="translate(190.869141 0)"/>
       <use xlink:href="#DejaVuSans-30" transform="translate(254.492188 0)"/>
      </g>
     </g>
    </g>
    <g id="ytick_7">
     <g id="line2d_25">
      <path d="M 81 99.36 
L 583.2 99.36 
" clip-path="url(#p8a8e010218)" style="fill: none; stroke-dasharray: 2.96,1.28; stroke-dashoffset: 0; stroke: #b0b0b0; stroke-opacity: 0.6; stroke-width: 0.8"/>
     </g>
     <g id="line2d_26">
      <g>
       <use xlink:href="#m6a53e52ca7" x="81" y="99.36" style="stroke: #000000; stroke-width: 0.8"/>
      </g>
     </g>
     <g id="text_14">
      <!-- 12000 -->
      <g transform="translate(29.4625 104.678906) scale(0.14 -0.14)">
       <use xlink:href="#DejaVuSans-31"/>
       <use xlink:href="#DejaVuSans-32" transform="translate(63.623047 0)"/>
       <use xlink:href="#DejaVuSans-30" transform="translate(127.246094 0)"/>
       <use xlink:href="#DejaVuSans-30" transform="translate(190.869141 0)"/>
       <use xlink:href="#DejaVuSans-30" transform="translate(254.492188 0)"/>
      </g>
     </g>
    </g>
    <g id="ytick_8">
     <g id="line2d_27">
      <path d="M 81 51.84 
L 583.2 51.84 
" clip-path="url(#p8a8e010218)" style="fill: none; stroke-dasharray: 2.96,1.28; stroke-dashoffset: 0; stroke: #b0b0b0; stroke-opacity: 0.6; stroke-width: 0.8"/>
     </g>
     <g id="line2d_28">
      <g>
       <use xlink:href="#m6a53e52ca7" x="81" y="51.84" style="stroke: #000000; stroke-width: 0.8"/>
      </g>
     </g>
     <g id="text_15">
      <!-- 14000 -->
      <g transform="translate(29.4625 57.158906) scale(0.14 -0.14)">
       <use xlink:href="#DejaVuSans-31"/>
       <use xlink:href="#DejaVuSans-34" transform="translate(63.623047 0)"/>
       <use xlink:href="#DejaVuSans-30" transform="translate(127.246094 0)"/>
       <use xlink:href="#DejaVuSans-30" transform="translate(190.869141 0)"/>
       <use xlink:href="#DejaVuSans-30" transform="translate(254.492188 0)"/>
      </g>
     </g>
    </g>
    <g id="text_16">
     <!-- Total Unique File Extensions -->
     <g transform="translate(22.550937 315.598906) rotate(-90) scale(0.14 -0.14)">
      <defs>
       <path id="DejaVuSans-55" d="M 556 4666 
L 1191 4666 
L 1191 1831 
Q 1191 1081 1462 751 
Q 1734 422 2344 422 
Q 2950 422 3222 751 
Q 3494 1081 3494 1831 
L 3494 4666 
L 4128 4666 
L 4128 1753 
Q 4128 841 3676 375 
Q 3225 -91 2344 -91 
Q 1459 -91 1007 375 
Q 556 841 556 1753 
L 556 4666 
z
" transform="scale(0.015625)"/>
       <path id="DejaVuSans-71" d="M 947 1747 
Q 947 1113 1208 752 
Q 1469 391 1925 391 
Q 2381 391 2643 752 
Q 2906 1113 2906 1747 
Q 2906 2381 2643 2742 
Q 2381 3103 1925 3103 
Q 1469 3103 1208 2742 
Q 947 2381 947 1747 
z
M 2906 525 
Q 2725 213 2448 61 
Q 2172 -91 1784 -91 
Q 1150 -91 751 415 
Q 353 922 353 1747 
Q 353 2572 751 3078 
Q 1150 3584 1784 3584 
Q 2172 3584 2448 3432 
Q 2725 3281 2906 2969 
L 2906 3500 
L 3481 3500 
L 3481 -1331 
L 2906 -1331 
L 2906 525 
z
" transform="scale(0.015625)"/>
       <path id="DejaVuSans-75" d="M 544 1381 
L 544 3500 
L 1119 3500 
L 1119 1403 
Q 1119 906 1312 657 
Q 1506 409 1894 409 
Q 2359 409 2629 706 
Q 2900 1003 2900 1516 
L 2900 3500 
L 3475 3500 
L 3475 0 
L 2900 0 
L 2900 538 
Q 2691 219 2414 64 
Q 2138 -91 1772 -91 
Q 1169 -91 856 284 
Q 544 659 544 1381 
z
M 1991 3584 
L 1991 3584 
z
" transform="scale(0.015625)"/>
      </defs>
      <use xlink:href="#DejaVuSans-54"/>
      <use xlink:href="#DejaVuSans-6f" transform="translate(44.083984 0)"/>
      <use xlink:href="#DejaVuSans-74" transform="translate(105.265625 0)"/>
      <use xlink:href="#DejaVuSans-61" transform="translate(144.474609 0)"/>
      <use xlink:href="#DejaVuSans-6c" transform="translate(205.753906 0)"/>
      <use xlink:href="#DejaVuSans-20" transform="translate(233.537109 0)"/>
      <use xlink:href="#DejaVuSans-55" transform="translate(265.324219 0)"/>
      <use xlink:href="#DejaVuSans-6e" transform="translate(338.517578 0)"/>
      <use xlink:href="#DejaVuSans-69" transform="translate(401.896484 0)"/>
      <use xlink:href="#DejaVuSans-71" transform="translate(429.679688 0)"/>
      <use xlink:href="#DejaVuSans-75" transform="translate(493.15625 0)"/>
      <use xlink:href="#DejaVuSans-65" transform="translate(556.535156 0)"/>
      <use xlink:href="#DejaVuSans-20" transform="translate(618.058594 0)"/>
      <use xlink:href="#DejaVuSans-46" transform="translate(649.845703 0)"/>
      <use xlink:href="#DejaVuSans-69" transform="translate(700.115234 0)"/>
      <use xlink:href="#DejaVuSans-6c" transform="translate(727.898438 0)"/>
      <use xlink:href="#DejaVuSans-65" transform="translate(755.681641 0)"/>
      <use xlink:href="#DejaVuSans-20" transform="translate(817.205078 0)"/>
      <use xlink:href="#DejaVuSans-45" transform="translate(848.992188 0)"/>
      <use xlink:href="#DejaVuSans-78" transform="translate(912.175781 0)"/>
      <use xlink:href="#DejaVuSans-74" transform="translate(971.355469 0)"/>
      <use xlink:href="#DejaVuSans-65" transform="translate(1010.564453 0)"/>
      <use xlink:href="#DejaVuSans-6e" transform="translate(1072.087891 0)"/>
      <use xlink:href="#DejaVuSans-73" transform="translate(1135.466797 0)"/>
      <use xlink:href="#DejaVuSans-69" transform="translate(1187.566406 0)"/>
      <use xlink:href="#DejaVuSans-6f" transform="translate(1215.349609 0)"/>
      <use xlink:href="#DejaVuSans-6e" transform="translate(1276.53125 0)"/>
      <use xlink:href="#DejaVuSans-73" transform="translate(1339.910156 0)"/>
     </g>
    </g>
   </g>
   <g id="line2d_29">
    <path d="M 101.088 291.846405 
L 105.957818 278.460667 
L 110.827636 267.468615 
L 115.697455 258.14264 
L 120.567273 250.04353 
L 125.437091 242.885696 
L 130.306909 236.472952 
L 135.176727 230.664699 
L 140.046545 225.356728 
L 144.916364 220.469649 
L 149.786182 215.94159 
L 154.656 211.723392 
L 159.525818 207.77535 
L 164.395636 204.064932 
L 169.265455 200.56515 
L 174.135273 197.253369 
L 179.005091 194.110416 
L 183.874909 191.11991 
L 188.744727 188.267744 
L 193.614545 185.541683 
L 198.484364 182.931045 
L 203.354182 180.426453 
L 208.224 178.019627 
L 213.093818 175.703219 
L 217.963636 173.470682 
L 222.833455 171.316154 
L 227.703273 169.234367 
L 232.573091 167.220568 
L 237.442909 165.270458 
L 242.312727 163.38013 
L 247.182545 161.546029 
L 252.052364 159.764906 
L 256.922182 158.033786 
L 261.792 156.349938 
L 266.661818 154.710849 
L 271.531636 153.114201 
L 276.401455 151.557851 
L 281.271273 150.039815 
L 286.141091 148.558252 
L 291.010909 147.11145 
L 295.880727 145.697815 
L 300.750545 144.315862 
L 305.620364 142.9642 
L 310.490182 141.641531 
L 315.36 140.346636 
L 320.229818 139.078373 
L 325.099636 137.835669 
L 329.969455 136.617514 
L 334.839273 135.422956 
L 339.709091 134.2511 
L 344.578909 133.101097 
L 349.448727 131.972149 
L 354.318545 130.863497 
L 359.188364 129.774425 
L 364.058182 128.704253 
L 368.928 127.652337 
L 373.797818 126.618063 
L 378.667636 125.600851 
L 383.537455 124.600146 
L 388.407273 123.615421 
L 393.277091 122.646173 
L 398.146909 121.691924 
L 403.016727 120.752217 
L 407.886545 119.826615 
L 412.756364 118.9147 
L 417.626182 118.016074 
L 422.496 117.130356 
L 427.365818 116.257179 
L 432.235636 115.396193 
L 437.105455 114.547063 
L 441.975273 113.709466 
L 446.845091 112.883094 
L 451.714909 112.06765 
L 456.584727 111.262847 
L 461.454545 110.468413 
L 466.324364 109.684083 
L 471.194182 108.909604 
L 476.064 108.144731 
L 480.933818 107.389229 
L 485.803636 106.642871 
L 490.673455 105.905438 
L 495.543273 105.176719 
L 500.413091 104.456511 
L 505.282909 103.744617 
L 510.152727 103.040848 
L 515.022545 102.34502 
L 519.892364 101.656956 
L 524.762182 100.976485 
L 529.632 100.30344 
L 534.501818 99.637662 
L 539.371636 98.978995 
L 544.241455 98.327289 
L 549.111273 97.682399 
L 553.981091 97.044182 
L 558.850909 96.412504 
L 563.720727 95.78723 
L 568.590545 95.168232 
L 573.460364 94.555387 
L 578.330182 93.948571 
L 583.2 93.347669 
" clip-path="url(#p8a8e010218)" style="fill: none; stroke: #ff0000; stroke-width: 1.5; stroke-linecap: square"/>
   </g>
   <g id="patch_3">
    <path d="M 81 384.48 
L 81 51.84 
" style="fill: none; stroke: #000000; stroke-width: 0.8; stroke-linejoin: miter; stroke-linecap: square"/>
   </g>
   <g id="patch_4">
    <path d="M 583.2 384.48 
L 583.2 51.84 
" style="fill: none; stroke: #000000; stroke-width: 0.8; stroke-linejoin: miter; stroke-linecap: square"/>
   </g>
   <g id="patch_5">
    <path d="M 81 384.48 
L 583.2 384.48 
" style="fill: none; stroke: #000000; stroke-width: 0.8; stroke-linejoin: miter; stroke-linecap: square"/>
   </g>
   <g id="patch_6">
    <path d="M 81 51.84 
L 583.2 51.84 
" style="fill: none; stroke: #000000; stroke-width: 0.8; stroke-linejoin: miter; stroke-linecap: square"/>
   </g>
   <g id="legend_1">
    <g id="patch_7">
     <path d="M 354.205781 378.98 
L 575.5 378.98 
Q 577.7 378.98 577.7 376.78 
L 577.7 345.588125 
Q 577.7 343.388125 575.5 343.388125 
L 354.205781 343.388125 
Q 352.005781 343.388125 352.005781 345.588125 
L 352.005781 376.78 
Q 352.005781 378.98 354.205781 378.98 
z
" style="fill: #ffffff; opacity: 0.8; stroke: #cccccc; stroke-linejoin: miter"/>
    </g>
    <g id="line2d_30">
     <path d="M 356.405781 352.296406 
L 367.405781 352.296406 
L 378.405781 352.296406 
" style="fill: none; stroke: #ff0000; stroke-width: 1.5; stroke-linecap: square"/>
    </g>
    <g id="text_17">
     <!-- Fit: y = 2595.42ln(x) + -15828.79 -->
     <g transform="translate(387.205781 356.146406) scale(0.11 -0.11)">
      <defs>
       <path id="DejaVuSans-3a" d="M 750 794 
L 1409 794 
L 1409 0 
L 750 0 
L 750 794 
z
M 750 3309 
L 1409 3309 
L 1409 2516 
L 750 2516 
L 750 3309 
z
" transform="scale(0.015625)"/>
       <path id="DejaVuSans-79" d="M 2059 -325 
Q 1816 -950 1584 -1140 
Q 1353 -1331 966 -1331 
L 506 -1331 
L 506 -850 
L 844 -850 
Q 1081 -850 1212 -737 
Q 1344 -625 1503 -206 
L 1606 56 
L 191 3500 
L 800 3500 
L 1894 763 
L 2988 3500 
L 3597 3500 
L 2059 -325 
z
" transform="scale(0.015625)"/>
       <path id="DejaVuSans-3d" d="M 678 2906 
L 4684 2906 
L 4684 2381 
L 678 2381 
L 678 2906 
z
M 678 1631 
L 4684 1631 
L 4684 1100 
L 678 1100 
L 678 1631 
z
" transform="scale(0.015625)"/>
       <path id="DejaVuSans-39" d="M 703 97 
L 703 672 
Q 941 559 1184 500 
Q 1428 441 1663 441 
Q 2288 441 2617 861 
Q 2947 1281 2994 2138 
Q 2813 1869 2534 1725 
Q 2256 1581 1919 1581 
Q 1219 1581 811 2004 
Q 403 2428 403 3163 
Q 403 3881 828 4315 
Q 1253 4750 1959 4750 
Q 2769 4750 3195 4129 
Q 3622 3509 3622 2328 
Q 3622 1225 3098 567 
Q 2575 -91 1691 -91 
Q 1453 -91 1209 -44 
Q 966 3 703 97 
z
M 1959 2075 
Q 2384 2075 2632 2365 
Q 2881 2656 2881 3163 
Q 2881 3666 2632 3958 
Q 2384 4250 1959 4250 
Q 1534 4250 1286 3958 
Q 1038 3666 1038 3163 
Q 1038 2656 1286 2365 
Q 1534 2075 1959 2075 
z
" transform="scale(0.015625)"/>
       <path id="DejaVuSans-2e" d="M 684 794 
L 1344 794 
L 1344 0 
L 684 0 
L 684 794 
z
" transform="scale(0.015625)"/>
       <path id="DejaVuSans-28" d="M 1984 4856 
Q 1566 4138 1362 3434 
Q 1159 2731 1159 2009 
Q 1159 1288 1364 580 
Q 1569 -128 1984 -844 
L 1484 -844 
Q 1016 -109 783 600 
Q 550 1309 550 2009 
Q 550 2706 781 3412 
Q 1013 4119 1484 4856 
L 1984 4856 
z
" transform="scale(0.015625)"/>
       <path id="DejaVuSans-29" d="M 513 4856 
L 1013 4856 
Q 1481 4119 1714 3412 
Q 1947 2706 1947 2009 
Q 1947 1309 1714 600 
Q 1481 -109 1013 -844 
L 513 -844 
Q 928 -128 1133 580 
Q 1338 1288 1338 2009 
Q 1338 2731 1133 3434 
Q 928 4138 513 4856 
z
" transform="scale(0.015625)"/>
       <path id="DejaVuSans-2b" d="M 2944 4013 
L 2944 2272 
L 4684 2272 
L 4684 1741 
L 2944 1741 
L 2944 0 
L 2419 0 
L 2419 1741 
L 678 1741 
L 678 2272 
L 2419 2272 
L 2419 4013 
L 2944 4013 
z
" transform="scale(0.015625)"/>
       <path id="DejaVuSans-2d" d="M 313 2009 
L 1997 2009 
L 1997 1497 
L 313 1497 
L 313 2009 
z
" transform="scale(0.015625)"/>
       <path id="DejaVuSans-37" d="M 525 4666 
L 3525 4666 
L 3525 4397 
L 1831 0 
L 1172 0 
L 2766 4134 
L 525 4134 
L 525 4666 
z
" transform="scale(0.015625)"/>
      </defs>
      <use xlink:href="#DejaVuSans-46"/>
      <use xlink:href="#DejaVuSans-69" transform="translate(50.269531 0)"/>
      <use xlink:href="#DejaVuSans-74" transform="translate(78.052734 0)"/>
      <use xlink:href="#DejaVuSans-3a" transform="translate(117.261719 0)"/>
      <use xlink:href="#DejaVuSans-20" transform="translate(150.953125 0)"/>
      <use xlink:href="#DejaVuSans-79" transform="translate(182.740234 0)"/>
      <use xlink:href="#DejaVuSans-20" transform="translate(241.919922 0)"/>
      <use xlink:href="#DejaVuSans-3d" transform="translate(273.707031 0)"/>
      <use xlink:href="#DejaVuSans-20" transform="translate(357.496094 0)"/>
      <use xlink:href="#DejaVuSans-32" transform="translate(389.283203 0)"/>
      <use xlink:href="#DejaVuSans-35" transform="translate(452.90625 0)"/>
      <use xlink:href="#DejaVuSans-39" transform="translate(516.529297 0)"/>
      <use xlink:href="#DejaVuSans-35" transform="translate(580.152344 0)"/>
      <use xlink:href="#DejaVuSans-2e" transform="translate(643.775391 0)"/>
      <use xlink:href="#DejaVuSans-34" transform="translate(675.5625 0)"/>
      <use xlink:href="#DejaVuSans-32" transform="translate(739.185547 0)"/>
      <use xlink:href="#DejaVuSans-6c" transform="translate(802.808594 0)"/>
      <use xlink:href="#DejaVuSans-6e" transform="translate(830.591797 0)"/>
      <use xlink:href="#DejaVuSans-28" transform="translate(893.970703 0)"/>
      <use xlink:href="#DejaVuSans-78" transform="translate(932.984375 0)"/>
      <use xlink:href="#DejaVuSans-29" transform="translate(992.164062 0)"/>
      <use xlink:href="#DejaVuSans-20" transform="translate(1031.177734 0)"/>
      <use xlink:href="#DejaVuSans-2b" transform="translate(1062.964844 0)"/>
      <use xlink:href="#DejaVuSans-20" transform="translate(1146.753906 0)"/>
      <use xlink:href="#DejaVuSans-2d" transform="translate(1178.541016 0)"/>
      <use xlink:href="#DejaVuSans-31" transform="translate(1214.625 0)"/>
      <use xlink:href="#DejaVuSans-35" transform="translate(1278.248047 0)"/>
      <use xlink:href="#DejaVuSans-38" transform="translate(1341.871094 0)"/>
      <use xlink:href="#DejaVuSans-32" transform="translate(1405.494141 0)"/>
      <use xlink:href="#DejaVuSans-38" transform="translate(1469.117188 0)"/>
      <use xlink:href="#DejaVuSans-2e" transform="translate(1532.740234 0)"/>
      <use xlink:href="#DejaVuSans-37" transform="translate(1564.527344 0)"/>
      <use xlink:href="#DejaVuSans-39" transform="translate(1628.150391 0)"/>
     </g>
    </g>
    <g id="patch_8">
     <path d="M 356.405781 372.292344 
L 378.405781 372.292344 
L 378.405781 364.592344 
L 356.405781 364.592344 
z
" style="fill: #ff0000; fill-opacity: 0.2; stroke: #ff0000; stroke-opacity: 0.2; stroke-linejoin: miter"/>
    </g>
    <g id="text_18">
     <!-- 95% Confidence Interval -->
     <g transform="translate(387.205781 372.292344) scale(0.11 -0.11)">
      <defs>
       <path id="DejaVuSans-25" d="M 4653 2053 
Q 4381 2053 4226 1822 
Q 4072 1591 4072 1178 
Q 4072 772 4226 539 
Q 4381 306 4653 306 
Q 4919 306 5073 539 
Q 5228 772 5228 1178 
Q 5228 1588 5073 1820 
Q 4919 2053 4653 2053 
z
M 4653 2450 
Q 5147 2450 5437 2106 
Q 5728 1763 5728 1178 
Q 5728 594 5436 251 
Q 5144 -91 4653 -91 
Q 4153 -91 3862 251 
Q 3572 594 3572 1178 
Q 3572 1766 3864 2108 
Q 4156 2450 4653 2450 
z
M 1428 4353 
Q 1159 4353 1004 4120 
Q 850 3888 850 3481 
Q 850 3069 1003 2837 
Q 1156 2606 1428 2606 
Q 1700 2606 1854 2837 
Q 2009 3069 2009 3481 
Q 2009 3884 1853 4118 
Q 1697 4353 1428 4353 
z
M 4250 4750 
L 4750 4750 
L 1831 -91 
L 1331 -91 
L 4250 4750 
z
M 1428 4750 
Q 1922 4750 2215 4408 
Q 2509 4066 2509 3481 
Q 2509 2891 2217 2550 
Q 1925 2209 1428 2209 
Q 931 2209 642 2551 
Q 353 2894 353 3481 
Q 353 4063 643 4406 
Q 934 4750 1428 4750 
z
" transform="scale(0.015625)"/>
       <path id="DejaVuSans-43" d="M 4122 4306 
L 4122 3641 
Q 3803 3938 3442 4084 
Q 3081 4231 2675 4231 
Q 1875 4231 1450 3742 
Q 1025 3253 1025 2328 
Q 1025 1406 1450 917 
Q 1875 428 2675 428 
Q 3081 428 3442 575 
Q 3803 722 4122 1019 
L 4122 359 
Q 3791 134 3420 21 
Q 3050 -91 2638 -91 
Q 1578 -91 968 557 
Q 359 1206 359 2328 
Q 359 3453 968 4101 
Q 1578 4750 2638 4750 
Q 3056 4750 3426 4639 
Q 3797 4528 4122 4306 
z
" transform="scale(0.015625)"/>
       <path id="DejaVuSans-66" d="M 2375 4863 
L 2375 4384 
L 1825 4384 
Q 1516 4384 1395 4259 
Q 1275 4134 1275 3809 
L 1275 3500 
L 2222 3500 
L 2222 3053 
L 1275 3053 
L 1275 0 
L 697 0 
L 697 3053 
L 147 3053 
L 147 3500 
L 697 3500 
L 697 3744 
Q 697 4328 969 4595 
Q 1241 4863 1831 4863 
L 2375 4863 
z
" transform="scale(0.015625)"/>
       <path id="DejaVuSans-49" d="M 628 4666 
L 1259 4666 
L 1259 0 
L 628 0 
L 628 4666 
z
" transform="scale(0.015625)"/>
       <path id="DejaVuSans-76" d="M 191 3500 
L 800 3500 
L 1894 563 
L 2988 3500 
L 3597 3500 
L 2284 0 
L 1503 0 
L 191 3500 
z
" transform="scale(0.015625)"/>
      </defs>
      <use xlink:href="#DejaVuSans-39"/>
      <use xlink:href="#DejaVuSans-35" transform="translate(63.623047 0)"/>
      <use xlink:href="#DejaVuSans-25" transform="translate(127.246094 0)"/>
      <use xlink:href="#DejaVuSans-20" transform="translate(222.265625 0)"/>
      <use xlink:href="#DejaVuSans-43" transform="translate(254.052734 0)"/>
      <use xlink:href="#DejaVuSans-6f" transform="translate(323.876953 0)"/>
      <use xlink:href="#DejaVuSans-6e" transform="translate(385.058594 0)"/>
      <use xlink:href="#DejaVuSans-66" transform="translate(448.4375 0)"/>
      <use xlink:href="#DejaVuSans-69" transform="translate(483.642578 0)"/>
      <use xlink:href="#DejaVuSans-64" transform="translate(511.425781 0)"/>
      <use xlink:href="#DejaVuSans-65" transform="translate(574.902344 0)"/>
      <use xlink:href="#DejaVuSans-6e" transform="translate(636.425781 0)"/>
      <use xlink:href="#DejaVuSans-63" transform="translate(699.804688 0)"/>
      <use xlink:href="#DejaVuSans-65" transform="translate(754.785156 0)"/>
      <use xlink:href="#DejaVuSans-20" transform="translate(816.308594 0)"/>
      <use xlink:href="#DejaVuSans-49" transform="translate(848.095703 0)"/>
      <use xlink:href="#DejaVuSans-6e" transform="translate(877.587891 0)"/>
      <use xlink:href="#DejaVuSans-74" transform="translate(940.966797 0)"/>
      <use xlink:href="#DejaVuSans-65" transform="translate(980.175781 0)"/>
      <use xlink:href="#DejaVuSans-72" transform="translate(1041.699219 0)"/>
      <use xlink:href="#DejaVuSans-76" transform="translate(1082.8125 0)"/>
      <use xlink:href="#DejaVuSans-61" transform="translate(1141.992188 0)"/>
      <use xlink:href="#DejaVuSans-6c" transform="translate(1203.271484 0)"/>
     </g>
    </g>
   </g>
  </g>
 </g>
 <defs>
  <clipPath id="p8a8e010218">
   <rect x="81" y="51.84" width="502.2" height="332.64"/>
  </clipPath>
 </defs>
</svg>
