<?xml version="1.0" encoding="utf-8" standalone="no"?>
<!DOCTYPE svg PUBLIC "-//W3C//DTD SVG 1.1//EN"
  "http://www.w3.org/Graphics/SVG/1.1/DTD/svg11.dtd">
<svg xmlns:xlink="http://www.w3.org/1999/xlink" width="460.8pt" height="345.6pt" viewBox="0 0 460.8 345.6" xmlns="http://www.w3.org/2000/svg" version="1.1">
 <metadata>
  <rdf:RDF xmlns:dc="http://purl.org/dc/elements/1.1/" xmlns:cc="http://creativecommons.org/ns#" xmlns:rdf="http://www.w3.org/1999/02/22-rdf-syntax-ns#">
   <cc:Work>
    <dc:type rdf:resource="http://purl.org/dc/dcmitype/StillImage"/>
    <dc:date>2025-08-12T12:03:00.707294</dc:date>
    <dc:format>image/svg+xml</dc:format>
    <dc:creator>
     <cc:Agent>
      <dc:title>Matplotlib v3.10.5, https://matplotlib.org/</dc:title>
     </cc:Agent>
    </dc:creator>
   </cc:Work>
  </rdf:RDF>
 </metadata>
 <defs>
  <style type="text/css">*{stroke-linejoin: round; stroke-linecap: butt}</style>
 </defs>
 <g id="figure_1">
  <g id="patch_1">
   <path d="M 0 345.6 
L 460.8 345.6 
L 460.8 0 
L 0 0 
z
" style="fill: #ffffff"/>
  </g>
  <g id="axes_1">
   <g id="patch_2">
    <path d="M 57.6 307.584 
L 414.72 307.584 
L 414.72 41.472 
L 57.6 41.472 
z
" style="fill: #ffffff"/>
   </g>
   <g id="PathCollection_1">
    <defs>
     <path id="m5629ff5e0a" d="M 0 2.738613 
C 0.726289 2.738613 1.422928 2.450055 1.936492 1.936492 
C 2.450055 1.422928 2.738613 0.726289 2.738613 0 
C 2.738613 -0.726289 2.450055 -1.422928 1.936492 -1.936492 
C 1.422928 -2.450055 0.726289 -2.738613 0 -2.738613 
C -0.726289 -2.738613 -1.422928 -2.450055 -1.936492 -1.936492 
C -2.450055 -1.422928 -2.738613 -0.726289 -2.738613 0 
C -2.738613 0.726289 -2.450055 1.422928 -1.936492 1.936492 
C -1.422928 2.450055 -0.726289 2.738613 0 2.738613 
z
" style="stroke: #1f77b4"/>
    </defs>
    <g clip-path="url(#ped47b4078b)">
     <use xlink:href="#m5629ff5e0a" x="111.898473" y="180.751768" style="fill: #1f77b4; stroke: #1f77b4"/>
    </g>
   </g>
   <g id="PathCollection_2">
    <defs>
     <path id="m1aedf56bcd" d="M 0 2.738613 
C 0.726289 2.738613 1.422928 2.450055 1.936492 1.936492 
C 2.450055 1.422928 2.738613 0.726289 2.738613 0 
C 2.738613 -0.726289 2.450055 -1.422928 1.936492 -1.936492 
C 1.422928 -2.450055 0.726289 -2.738613 0 -2.738613 
C -0.726289 -2.738613 -1.422928 -2.450055 -1.936492 -1.936492 
C -2.450055 -1.422928 -2.738613 -0.726289 -2.738613 0 
C -2.738613 0.726289 -2.450055 1.422928 -1.936492 1.936492 
C -1.422928 2.450055 -0.726289 2.738613 0 2.738613 
z
" style="stroke: #ff7f0e"/>
    </defs>
    <g clip-path="url(#ped47b4078b)">
     <use xlink:href="#m1aedf56bcd" x="138.324" y="165.587332" style="fill: #ff7f0e; stroke: #ff7f0e"/>
    </g>
   </g>
   <g id="PathCollection_3">
    <defs>
     <path id="med06a7a00f" d="M 0 2.738613 
C 0.726289 2.738613 1.422928 2.450055 1.936492 1.936492 
C 2.450055 1.422928 2.738613 0.726289 2.738613 0 
C 2.738613 -0.726289 2.450055 -1.422928 1.936492 -1.936492 
C 1.422928 -2.450055 0.726289 -2.738613 0 -2.738613 
C -0.726289 -2.738613 -1.422928 -2.450055 -1.936492 -1.936492 
C -2.450055 -1.422928 -2.738613 -0.726289 -2.738613 0 
C -2.738613 0.726289 -2.450055 1.422928 -1.936492 1.936492 
C -1.422928 2.450055 -0.726289 2.738613 0 2.738613 
z
" style="stroke: #2ca02c"/>
    </defs>
    <g clip-path="url(#ped47b4078b)">
     <use xlink:href="#med06a7a00f" x="163.795855" y="146.881202" style="fill: #2ca02c; stroke: #2ca02c"/>
    </g>
   </g>
   <g id="PathCollection_4">
    <defs>
     <path id="ma69a4bf63f" d="M 0 2.738613 
C 0.726289 2.738613 1.422928 2.450055 1.936492 1.936492 
C 2.450055 1.422928 2.738613 0.726289 2.738613 0 
C 2.738613 -0.726289 2.450055 -1.422928 1.936492 -1.936492 
C 1.422928 -2.450055 0.726289 -2.738613 0 -2.738613 
C -0.726289 -2.738613 -1.422928 -2.450055 -1.936492 -1.936492 
C -2.450055 -1.422928 -2.738613 -0.726289 -2.738613 0 
C -2.738613 0.726289 -2.450055 1.422928 -1.936492 1.936492 
C -1.422928 2.450055 -0.726289 2.738613 0 2.738613 
z
" style="stroke: #d62728"/>
    </defs>
    <g clip-path="url(#ped47b4078b)">
     <use xlink:href="#ma69a4bf63f" x="175.145236" y="144.636466" style="fill: #d62728; stroke: #d62728"/>
    </g>
   </g>
   <g id="PathCollection_5">
    <defs>
     <path id="m2f73ffbe42" d="M 0 2.738613 
C 0.726289 2.738613 1.422928 2.450055 1.936492 1.936492 
C 2.450055 1.422928 2.738613 0.726289 2.738613 0 
C 2.738613 -0.726289 2.450055 -1.422928 1.936492 -1.936492 
C 1.422928 -2.450055 0.726289 -2.738613 0 -2.738613 
C -0.726289 -2.738613 -1.422928 -2.450055 -1.936492 -1.936492 
C -2.450055 -1.422928 -2.738613 -0.726289 -2.738613 0 
C -2.738613 0.726289 -2.450055 1.422928 -1.936492 1.936492 
C -1.422928 2.450055 -0.726289 2.738613 0 2.738613 
z
" style="stroke: #9467bd"/>
    </defs>
    <g clip-path="url(#ped47b4078b)">
     <use xlink:href="#m2f73ffbe42" x="184.709018" y="129.671562" style="fill: #9467bd; stroke: #9467bd"/>
    </g>
   </g>
   <g id="PathCollection_6">
    <defs>
     <path id="me29cd27d1e" d="M 0 2.738613 
C 0.726289 2.738613 1.422928 2.450055 1.936492 1.936492 
C 2.450055 1.422928 2.738613 0.726289 2.738613 0 
C 2.738613 -0.726289 2.450055 -1.422928 1.936492 -1.936492 
C 1.422928 -2.450055 0.726289 -2.738613 0 -2.738613 
C -0.726289 -2.738613 -1.422928 -2.450055 -1.936492 -1.936492 
C -2.450055 -1.422928 -2.738613 -0.726289 -2.738613 0 
C -2.738613 0.726289 -2.450055 1.422928 -1.936492 1.936492 
C -1.422928 2.450055 -0.726289 2.738613 0 2.738613 
z
" style="stroke: #8c564b"/>
    </defs>
    <g clip-path="url(#ped47b4078b)">
     <use xlink:href="#me29cd27d1e" x="192.649527" y="123.186771" style="fill: #8c564b; stroke: #8c564b"/>
    </g>
   </g>
   <g id="PathCollection_7">
    <defs>
     <path id="m7904edd1c1" d="M 0 2.738613 
C 0.726289 2.738613 1.422928 2.450055 1.936492 1.936492 
C 2.450055 1.422928 2.738613 0.726289 2.738613 0 
C 2.738613 -0.726289 2.450055 -1.422928 1.936492 -1.936492 
C 1.422928 -2.450055 0.726289 -2.738613 0 -2.738613 
C -0.726289 -2.738613 -1.422928 -2.450055 -1.936492 -1.936492 
C -2.450055 -1.422928 -2.738613 -0.726289 -2.738613 0 
C -2.738613 0.726289 -2.450055 1.422928 -1.936492 1.936492 
C -1.422928 2.450055 -0.726289 2.738613 0 2.738613 
z
" style="stroke: #e377c2"/>
    </defs>
    <g clip-path="url(#ped47b4078b)">
     <use xlink:href="#m7904edd1c1" x="195.943418" y="121.914754" style="fill: #e377c2; stroke: #e377c2"/>
    </g>
   </g>
   <g id="FillBetweenPolyCollection_1">
    <defs>
     <path id="m59b19b6faf" d="M 73.832727 -105.533529 
L 73.832727 -50.112 
L 77.112066 -66.320261 
L 80.391405 -79.621819 
L 83.670744 -90.899292 
L 86.950083 -100.6853 
L 90.229421 -109.326009 
L 93.50876 -117.059047 
L 96.788099 -124.054532 
L 100.067438 -130.438349 
L 103.346777 -136.30618 
L 106.626116 -141.73234 
L 109.905455 -146.775595 
L 113.184793 -151.483087 
L 116.464132 -155.893076 
L 119.743471 -160.036888 
L 123.02281 -163.940332 
L 126.302149 -167.624749 
L 129.581488 -171.10781 
L 132.860826 -174.404137 
L 136.140165 -177.525824 
L 139.419504 -180.482891 
L 142.698843 -183.283736 
L 145.978182 -185.935596 
L 149.257521 -188.445042 
L 152.53686 -190.818463 
L 155.816198 -193.062507 
L 159.095537 -195.184376 
L 162.374876 -197.191927 
L 165.654215 -199.093568 
L 168.933554 -200.897992 
L 172.212893 -202.613843 
L 175.492231 -204.249417 
L 178.77157 -205.812423 
L 182.050909 -207.309857 
L 185.330248 -208.747956 
L 188.609587 -210.132211 
L 191.888926 -211.467426 
L 195.168264 -212.75779 
L 198.447603 -214.006953 
L 201.726942 -215.218103 
L 205.006281 -216.394035 
L 208.28562 -217.537205 
L 211.564959 -218.649786 
L 214.844298 -219.73371 
L 218.123636 -220.790702 
L 221.402975 -221.822308 
L 224.682314 -222.829926 
L 227.961653 -223.814821 
L 231.240992 -224.778144 
L 234.520331 -225.720949 
L 237.799669 -226.644201 
L 241.079008 -227.548789 
L 244.358347 -228.435535 
L 247.637686 -229.305199 
L 250.917025 -230.158489 
L 254.196364 -230.996064 
L 257.475702 -231.818539 
L 260.755041 -232.62649 
L 264.03438 -233.420457 
L 267.313719 -234.200947 
L 270.593058 -234.96844 
L 273.872397 -235.723385 
L 277.151736 -236.466209 
L 280.431074 -237.197314 
L 283.710413 -237.917082 
L 286.989752 -238.625875 
L 290.269091 -239.324037 
L 293.54843 -240.011895 
L 296.827769 -240.68976 
L 300.107107 -241.357929 
L 303.386446 -242.016684 
L 306.665785 -242.666295 
L 309.945124 -243.307021 
L 313.224463 -243.939108 
L 316.503802 -244.562792 
L 319.78314 -245.178301 
L 323.062479 -245.78585 
L 326.341818 -246.385647 
L 329.621157 -246.977893 
L 332.900496 -247.56278 
L 336.179835 -248.140491 
L 339.459174 -248.711204 
L 342.738512 -249.27509 
L 346.017851 -249.832312 
L 349.29719 -250.383031 
L 352.576529 -250.927397 
L 355.855868 -251.465558 
L 359.135207 -251.997657 
L 362.414545 -252.52383 
L 365.693884 -253.044209 
L 368.973223 -253.558923 
L 372.252562 -254.068095 
L 375.531901 -254.571845 
L 378.81124 -255.070288 
L 382.090579 -255.563536 
L 385.369917 -256.051698 
L 388.649256 -256.534878 
L 391.928595 -257.013179 
L 395.207934 -257.486698 
L 398.487273 -257.955532 
L 398.487273 -292.032 
L 398.487273 -292.032 
L 395.207934 -291.307068 
L 391.928595 -290.575075 
L 388.649256 -289.835883 
L 385.369917 -289.089349 
L 382.090579 -288.335328 
L 378.81124 -287.57367 
L 375.531901 -286.804218 
L 372.252562 -286.026814 
L 368.973223 -285.241292 
L 365.693884 -284.447484 
L 362.414545 -283.645213 
L 359.135207 -282.834301 
L 355.855868 -282.01456 
L 352.576529 -281.185798 
L 349.29719 -280.347817 
L 346.017851 -279.500412 
L 342.738512 -278.643371 
L 339.459174 -277.776476 
L 336.179835 -276.8995 
L 332.900496 -276.01221 
L 329.621157 -275.114365 
L 326.341818 -274.205713 
L 323.062479 -273.285997 
L 319.78314 -272.354948 
L 316.503802 -271.412289 
L 313.224463 -270.457733 
L 309.945124 -269.490982 
L 306.665785 -268.511728 
L 303.386446 -267.51965 
L 300.107107 -266.514417 
L 296.827769 -265.495685 
L 293.54843 -264.463096 
L 290.269091 -263.416281 
L 286.989752 -262.354855 
L 283.710413 -261.278418 
L 280.431074 -260.186557 
L 277.151736 -259.07884 
L 273.872397 -257.95482 
L 270.593058 -256.814033 
L 267.313719 -255.655997 
L 264.03438 -254.480211 
L 260.755041 -253.286155 
L 257.475702 -252.073289 
L 254.196364 -250.841053 
L 250.917025 -249.588868 
L 247.637686 -248.316131 
L 244.358347 -247.02222 
L 241.079008 -245.706494 
L 237.799669 -244.368287 
L 234.520331 -243.006919 
L 231.240992 -241.621687 
L 227.961653 -240.211876 
L 224.682314 -238.776757 
L 221.402975 -237.315591 
L 218.123636 -235.827639 
L 214.844298 -234.312163 
L 211.564959 -232.768443 
L 208.28562 -231.195783 
L 205.006281 -229.593533 
L 201.726942 -227.961107 
L 198.447603 -226.298009 
L 195.168264 -224.603866 
L 191.888926 -222.878465 
L 188.609587 -221.121801 
L 185.330248 -219.334119 
L 182.050909 -217.515966 
L 178.77157 -215.668231 
L 175.492231 -213.792155 
L 172.212893 -211.88931 
L 168.933554 -209.961496 
L 165.654215 -208.010553 
L 162.374876 -206.038062 
L 159.095537 -204.044957 
L 155.816198 -202.0311 
L 152.53686 -199.99491 
L 149.257521 -197.933123 
L 145.978182 -195.840742 
L 142.698843 -193.711148 
L 139.419504 -191.536315 
L 136.140165 -189.307031 
L 132.860826 -187.013064 
L 129.581488 -184.643214 
L 126.302149 -182.18527 
L 123.02281 -179.625827 
L 119.743471 -176.950013 
L 116.464132 -174.141081 
L 113.184793 -171.17987 
L 109.905455 -168.044094 
L 106.626116 -164.707383 
L 103.346777 -161.138001 
L 100.067438 -157.297052 
L 96.788099 -153.135935 
L 93.50876 -148.592616 
L 90.229421 -143.585955 
L 86.950083 -138.006751 
L 83.670744 -131.702887 
L 80.391405 -124.45317 
L 77.112066 -115.917674 
L 73.832727 -105.533529 
z
" style="stroke: #ff0000; stroke-opacity: 0.2"/>
    </defs>
    <g clip-path="url(#ped47b4078b)">
     <use xlink:href="#m59b19b6faf" x="0" y="345.6" style="fill: #ff0000; fill-opacity: 0.2; stroke: #ff0000; stroke-opacity: 0.2"/>
    </g>
   </g>
   <g id="matplotlib.axis_1">
    <g id="xtick_1">
     <g id="line2d_1">
      <path d="M 60.305455 307.584 
L 60.305455 41.472 
" clip-path="url(#ped47b4078b)" style="fill: none; stroke-dasharray: 2.96,1.28; stroke-dashoffset: 0; stroke: #b0b0b0; stroke-opacity: 0.6; stroke-width: 0.8"/>
     </g>
     <g id="line2d_2">
      <defs>
       <path id="m648865f880" d="M 0 0 
L 0 3.5 
" style="stroke: #000000; stroke-width: 0.8"/>
      </defs>
      <g>
       <use xlink:href="#m648865f880" x="60.305455" y="307.584" style="stroke: #000000; stroke-width: 0.8"/>
      </g>
     </g>
     <g id="text_1">
      <!-- 0 -->
      <g transform="translate(57.124205 322.182437) scale(0.1 -0.1)">
       <defs>
        <path id="DejaVuSans-30" d="M 2034 4250 
Q 1547 4250 1301 3770 
Q 1056 3291 1056 2328 
Q 1056 1369 1301 889 
Q 1547 409 2034 409 
Q 2525 409 2770 889 
Q 3016 1369 3016 2328 
Q 3016 3291 2770 3770 
Q 2525 4250 2034 4250 
z
M 2034 4750 
Q 2819 4750 3233 4129 
Q 3647 3509 3647 2328 
Q 3647 1150 3233 529 
Q 2819 -91 2034 -91 
Q 1250 -91 836 529 
Q 422 1150 422 2328 
Q 422 3509 836 4129 
Q 1250 4750 2034 4750 
z
" transform="scale(0.015625)"/>
       </defs>
       <use xlink:href="#DejaVuSans-30"/>
      </g>
     </g>
    </g>
    <g id="xtick_2">
     <g id="line2d_3">
      <path d="M 127.941818 307.584 
L 127.941818 41.472 
" clip-path="url(#ped47b4078b)" style="fill: none; stroke-dasharray: 2.96,1.28; stroke-dashoffset: 0; stroke: #b0b0b0; stroke-opacity: 0.6; stroke-width: 0.8"/>
     </g>
     <g id="line2d_4">
      <g>
       <use xlink:href="#m648865f880" x="127.941818" y="307.584" style="stroke: #000000; stroke-width: 0.8"/>
      </g>
     </g>
     <g id="text_2">
      <!-- 10000 -->
      <g transform="translate(112.035568 322.182437) scale(0.1 -0.1)">
       <defs>
        <path id="DejaVuSans-31" d="M 794 531 
L 1825 531 
L 1825 4091 
L 703 3866 
L 703 4441 
L 1819 4666 
L 2450 4666 
L 2450 531 
L 3481 531 
L 3481 0 
L 794 0 
L 794 531 
z
" transform="scale(0.015625)"/>
       </defs>
       <use xlink:href="#DejaVuSans-31"/>
       <use xlink:href="#DejaVuSans-30" transform="translate(63.623047 0)"/>
       <use xlink:href="#DejaVuSans-30" transform="translate(127.246094 0)"/>
       <use xlink:href="#DejaVuSans-30" transform="translate(190.869141 0)"/>
       <use xlink:href="#DejaVuSans-30" transform="translate(254.492188 0)"/>
      </g>
     </g>
    </g>
    <g id="xtick_3">
     <g id="line2d_5">
      <path d="M 195.578182 307.584 
L 195.578182 41.472 
" clip-path="url(#ped47b4078b)" style="fill: none; stroke-dasharray: 2.96,1.28; stroke-dashoffset: 0; stroke: #b0b0b0; stroke-opacity: 0.6; stroke-width: 0.8"/>
     </g>
     <g id="line2d_6">
      <g>
       <use xlink:href="#m648865f880" x="195.578182" y="307.584" style="stroke: #000000; stroke-width: 0.8"/>
      </g>
     </g>
     <g id="text_3">
      <!-- 20000 -->
      <g transform="translate(179.671932 322.182437) scale(0.1 -0.1)">
       <defs>
        <path id="DejaVuSans-32" d="M 1228 531 
L 3431 531 
L 3431 0 
L 469 0 
L 469 531 
Q 828 903 1448 1529 
Q 2069 2156 2228 2338 
Q 2531 2678 2651 2914 
Q 2772 3150 2772 3378 
Q 2772 3750 2511 3984 
Q 2250 4219 1831 4219 
Q 1534 4219 1204 4116 
Q 875 4013 500 3803 
L 500 4441 
Q 881 4594 1212 4672 
Q 1544 4750 1819 4750 
Q 2544 4750 2975 4387 
Q 3406 4025 3406 3419 
Q 3406 3131 3298 2873 
Q 3191 2616 2906 2266 
Q 2828 2175 2409 1742 
Q 1991 1309 1228 531 
z
" transform="scale(0.015625)"/>
       </defs>
       <use xlink:href="#DejaVuSans-32"/>
       <use xlink:href="#DejaVuSans-30" transform="translate(63.623047 0)"/>
       <use xlink:href="#DejaVuSans-30" transform="translate(127.246094 0)"/>
       <use xlink:href="#DejaVuSans-30" transform="translate(190.869141 0)"/>
       <use xlink:href="#DejaVuSans-30" transform="translate(254.492188 0)"/>
      </g>
     </g>
    </g>
    <g id="xtick_4">
     <g id="line2d_7">
      <path d="M 263.214545 307.584 
L 263.214545 41.472 
" clip-path="url(#ped47b4078b)" style="fill: none; stroke-dasharray: 2.96,1.28; stroke-dashoffset: 0; stroke: #b0b0b0; stroke-opacity: 0.6; stroke-width: 0.8"/>
     </g>
     <g id="line2d_8">
      <g>
       <use xlink:href="#m648865f880" x="263.214545" y="307.584" style="stroke: #000000; stroke-width: 0.8"/>
      </g>
     </g>
     <g id="text_4">
      <!-- 30000 -->
      <g transform="translate(247.308295 322.182437) scale(0.1 -0.1)">
       <defs>
        <path id="DejaVuSans-33" d="M 2597 2516 
Q 3050 2419 3304 2112 
Q 3559 1806 3559 1356 
Q 3559 666 3084 287 
Q 2609 -91 1734 -91 
Q 1441 -91 1130 -33 
Q 819 25 488 141 
L 488 750 
Q 750 597 1062 519 
Q 1375 441 1716 441 
Q 2309 441 2620 675 
Q 2931 909 2931 1356 
Q 2931 1769 2642 2001 
Q 2353 2234 1838 2234 
L 1294 2234 
L 1294 2753 
L 1863 2753 
Q 2328 2753 2575 2939 
Q 2822 3125 2822 3475 
Q 2822 3834 2567 4026 
Q 2313 4219 1838 4219 
Q 1578 4219 1281 4162 
Q 984 4106 628 3988 
L 628 4550 
Q 988 4650 1302 4700 
Q 1616 4750 1894 4750 
Q 2613 4750 3031 4423 
Q 3450 4097 3450 3541 
Q 3450 3153 3228 2886 
Q 3006 2619 2597 2516 
z
" transform="scale(0.015625)"/>
       </defs>
       <use xlink:href="#DejaVuSans-33"/>
       <use xlink:href="#DejaVuSans-30" transform="translate(63.623047 0)"/>
       <use xlink:href="#DejaVuSans-30" transform="translate(127.246094 0)"/>
       <use xlink:href="#DejaVuSans-30" transform="translate(190.869141 0)"/>
       <use xlink:href="#DejaVuSans-30" transform="translate(254.492188 0)"/>
      </g>
     </g>
    </g>
    <g id="xtick_5">
     <g id="line2d_9">
      <path d="M 330.850909 307.584 
L 330.850909 41.472 
" clip-path="url(#ped47b4078b)" style="fill: none; stroke-dasharray: 2.96,1.28; stroke-dashoffset: 0; stroke: #b0b0b0; stroke-opacity: 0.6; stroke-width: 0.8"/>
     </g>
     <g id="line2d_10">
      <g>
       <use xlink:href="#m648865f880" x="330.850909" y="307.584" style="stroke: #000000; stroke-width: 0.8"/>
      </g>
     </g>
     <g id="text_5">
      <!-- 40000 -->
      <g transform="translate(314.944659 322.182437) scale(0.1 -0.1)">
       <defs>
        <path id="DejaVuSans-34" d="M 2419 4116 
L 825 1625 
L 2419 1625 
L 2419 4116 
z
M 2253 4666 
L 3047 4666 
L 3047 1625 
L 3713 1625 
L 3713 1100 
L 3047 1100 
L 3047 0 
L 2419 0 
L 2419 1100 
L 313 1100 
L 313 1709 
L 2253 4666 
z
" transform="scale(0.015625)"/>
       </defs>
       <use xlink:href="#DejaVuSans-34"/>
       <use xlink:href="#DejaVuSans-30" transform="translate(63.623047 0)"/>
       <use xlink:href="#DejaVuSans-30" transform="translate(127.246094 0)"/>
       <use xlink:href="#DejaVuSans-30" transform="translate(190.869141 0)"/>
       <use xlink:href="#DejaVuSans-30" transform="translate(254.492188 0)"/>
      </g>
     </g>
    </g>
    <g id="xtick_6">
     <g id="line2d_11">
      <path d="M 398.487273 307.584 
L 398.487273 41.472 
" clip-path="url(#ped47b4078b)" style="fill: none; stroke-dasharray: 2.96,1.28; stroke-dashoffset: 0; stroke: #b0b0b0; stroke-opacity: 0.6; stroke-width: 0.8"/>
     </g>
     <g id="line2d_12">
      <g>
       <use xlink:href="#m648865f880" x="398.487273" y="307.584" style="stroke: #000000; stroke-width: 0.8"/>
      </g>
     </g>
     <g id="text_6">
      <!-- 50000 -->
      <g transform="translate(382.581023 322.182437) scale(0.1 -0.1)">
       <defs>
        <path id="DejaVuSans-35" d="M 691 4666 
L 3169 4666 
L 3169 4134 
L 1269 4134 
L 1269 2991 
Q 1406 3038 1543 3061 
Q 1681 3084 1819 3084 
Q 2600 3084 3056 2656 
Q 3513 2228 3513 1497 
Q 3513 744 3044 326 
Q 2575 -91 1722 -91 
Q 1428 -91 1123 -41 
Q 819 9 494 109 
L 494 744 
Q 775 591 1075 516 
Q 1375 441 1709 441 
Q 2250 441 2565 725 
Q 2881 1009 2881 1497 
Q 2881 1984 2565 2268 
Q 2250 2553 1709 2553 
Q 1456 2553 1204 2497 
Q 953 2441 691 2322 
L 691 4666 
z
" transform="scale(0.015625)"/>
       </defs>
       <use xlink:href="#DejaVuSans-35"/>
       <use xlink:href="#DejaVuSans-30" transform="translate(63.623047 0)"/>
       <use xlink:href="#DejaVuSans-30" transform="translate(127.246094 0)"/>
       <use xlink:href="#DejaVuSans-30" transform="translate(190.869141 0)"/>
       <use xlink:href="#DejaVuSans-30" transform="translate(254.492188 0)"/>
      </g>
     </g>
    </g>
    <g id="text_7">
     <!-- Total File Extensions -->
     <g transform="translate(185.786563 335.860562) scale(0.1 -0.1)">
      <defs>
       <path id="DejaVuSans-54" d="M -19 4666 
L 3928 4666 
L 3928 4134 
L 2272 4134 
L 2272 0 
L 1638 0 
L 1638 4134 
L -19 4134 
L -19 4666 
z
" transform="scale(0.015625)"/>
       <path id="DejaVuSans-6f" d="M 1959 3097 
Q 1497 3097 1228 2736 
Q 959 2375 959 1747 
Q 959 1119 1226 758 
Q 1494 397 1959 397 
Q 2419 397 2687 759 
Q 2956 1122 2956 1747 
Q 2956 2369 2687 2733 
Q 2419 3097 1959 3097 
z
M 1959 3584 
Q 2709 3584 3137 3096 
Q 3566 2609 3566 1747 
Q 3566 888 3137 398 
Q 2709 -91 1959 -91 
Q 1206 -91 779 398 
Q 353 888 353 1747 
Q 353 2609 779 3096 
Q 1206 3584 1959 3584 
z
" transform="scale(0.015625)"/>
       <path id="DejaVuSans-74" d="M 1172 4494 
L 1172 3500 
L 2356 3500 
L 2356 3053 
L 1172 3053 
L 1172 1153 
Q 1172 725 1289 603 
Q 1406 481 1766 481 
L 2356 481 
L 2356 0 
L 1766 0 
Q 1100 0 847 248 
Q 594 497 594 1153 
L 594 3053 
L 172 3053 
L 172 3500 
L 594 3500 
L 594 4494 
L 1172 4494 
z
" transform="scale(0.015625)"/>
       <path id="DejaVuSans-61" d="M 2194 1759 
Q 1497 1759 1228 1600 
Q 959 1441 959 1056 
Q 959 750 1161 570 
Q 1363 391 1709 391 
Q 2188 391 2477 730 
Q 2766 1069 2766 1631 
L 2766 1759 
L 2194 1759 
z
M 3341 1997 
L 3341 0 
L 2766 0 
L 2766 531 
Q 2569 213 2275 61 
Q 1981 -91 1556 -91 
Q 1019 -91 701 211 
Q 384 513 384 1019 
Q 384 1609 779 1909 
Q 1175 2209 1959 2209 
L 2766 2209 
L 2766 2266 
Q 2766 2663 2505 2880 
Q 2244 3097 1772 3097 
Q 1472 3097 1187 3025 
Q 903 2953 641 2809 
L 641 3341 
Q 956 3463 1253 3523 
Q 1550 3584 1831 3584 
Q 2591 3584 2966 3190 
Q 3341 2797 3341 1997 
z
" transform="scale(0.015625)"/>
       <path id="DejaVuSans-6c" d="M 603 4863 
L 1178 4863 
L 1178 0 
L 603 0 
L 603 4863 
z
" transform="scale(0.015625)"/>
       <path id="DejaVuSans-20" transform="scale(0.015625)"/>
       <path id="DejaVuSans-46" d="M 628 4666 
L 3309 4666 
L 3309 4134 
L 1259 4134 
L 1259 2759 
L 3109 2759 
L 3109 2228 
L 1259 2228 
L 1259 0 
L 628 0 
L 628 4666 
z
" transform="scale(0.015625)"/>
       <path id="DejaVuSans-69" d="M 603 3500 
L 1178 3500 
L 1178 0 
L 603 0 
L 603 3500 
z
M 603 4863 
L 1178 4863 
L 1178 4134 
L 603 4134 
L 603 4863 
z
" transform="scale(0.015625)"/>
       <path id="DejaVuSans-65" d="M 3597 1894 
L 3597 1613 
L 953 1613 
Q 991 1019 1311 708 
Q 1631 397 2203 397 
Q 2534 397 2845 478 
Q 3156 559 3463 722 
L 3463 178 
Q 3153 47 2828 -22 
Q 2503 -91 2169 -91 
Q 1331 -91 842 396 
Q 353 884 353 1716 
Q 353 2575 817 3079 
Q 1281 3584 2069 3584 
Q 2775 3584 3186 3129 
Q 3597 2675 3597 1894 
z
M 3022 2063 
Q 3016 2534 2758 2815 
Q 2500 3097 2075 3097 
Q 1594 3097 1305 2825 
Q 1016 2553 972 2059 
L 3022 2063 
z
" transform="scale(0.015625)"/>
       <path id="DejaVuSans-45" d="M 628 4666 
L 3578 4666 
L 3578 4134 
L 1259 4134 
L 1259 2753 
L 3481 2753 
L 3481 2222 
L 1259 2222 
L 1259 531 
L 3634 531 
L 3634 0 
L 628 0 
L 628 4666 
z
" transform="scale(0.015625)"/>
       <path id="DejaVuSans-78" d="M 3513 3500 
L 2247 1797 
L 3578 0 
L 2900 0 
L 1881 1375 
L 863 0 
L 184 0 
L 1544 1831 
L 300 3500 
L 978 3500 
L 1906 2253 
L 2834 3500 
L 3513 3500 
z
" transform="scale(0.015625)"/>
       <path id="DejaVuSans-6e" d="M 3513 2113 
L 3513 0 
L 2938 0 
L 2938 2094 
Q 2938 2591 2744 2837 
Q 2550 3084 2163 3084 
Q 1697 3084 1428 2787 
Q 1159 2491 1159 1978 
L 1159 0 
L 581 0 
L 581 3500 
L 1159 3500 
L 1159 2956 
Q 1366 3272 1645 3428 
Q 1925 3584 2291 3584 
Q 2894 3584 3203 3211 
Q 3513 2838 3513 2113 
z
" transform="scale(0.015625)"/>
       <path id="DejaVuSans-73" d="M 2834 3397 
L 2834 2853 
Q 2591 2978 2328 3040 
Q 2066 3103 1784 3103 
Q 1356 3103 1142 2972 
Q 928 2841 928 2578 
Q 928 2378 1081 2264 
Q 1234 2150 1697 2047 
L 1894 2003 
Q 2506 1872 2764 1633 
Q 3022 1394 3022 966 
Q 3022 478 2636 193 
Q 2250 -91 1575 -91 
Q 1294 -91 989 -36 
Q 684 19 347 128 
L 347 722 
Q 666 556 975 473 
Q 1284 391 1588 391 
Q 1994 391 2212 530 
Q 2431 669 2431 922 
Q 2431 1156 2273 1281 
Q 2116 1406 1581 1522 
L 1381 1569 
Q 847 1681 609 1914 
Q 372 2147 372 2553 
Q 372 3047 722 3315 
Q 1072 3584 1716 3584 
Q 2034 3584 2315 3537 
Q 2597 3491 2834 3397 
z
" transform="scale(0.015625)"/>
      </defs>
      <use xlink:href="#DejaVuSans-54"/>
      <use xlink:href="#DejaVuSans-6f" transform="translate(44.083984 0)"/>
      <use xlink:href="#DejaVuSans-74" transform="translate(105.265625 0)"/>
      <use xlink:href="#DejaVuSans-61" transform="translate(144.474609 0)"/>
      <use xlink:href="#DejaVuSans-6c" transform="translate(205.753906 0)"/>
      <use xlink:href="#DejaVuSans-20" transform="translate(233.537109 0)"/>
      <use xlink:href="#DejaVuSans-46" transform="translate(265.324219 0)"/>
      <use xlink:href="#DejaVuSans-69" transform="translate(315.59375 0)"/>
      <use xlink:href="#DejaVuSans-6c" transform="translate(343.376953 0)"/>
      <use xlink:href="#DejaVuSans-65" transform="translate(371.160156 0)"/>
      <use xlink:href="#DejaVuSans-20" transform="translate(432.683594 0)"/>
      <use xlink:href="#DejaVuSans-45" transform="translate(464.470703 0)"/>
      <use xlink:href="#DejaVuSans-78" transform="translate(527.654297 0)"/>
      <use xlink:href="#DejaVuSans-74" transform="translate(586.833984 0)"/>
      <use xlink:href="#DejaVuSans-65" transform="translate(626.042969 0)"/>
      <use xlink:href="#DejaVuSans-6e" transform="translate(687.566406 0)"/>
      <use xlink:href="#DejaVuSans-73" transform="translate(750.945312 0)"/>
      <use xlink:href="#DejaVuSans-69" transform="translate(803.044922 0)"/>
      <use xlink:href="#DejaVuSans-6f" transform="translate(830.828125 0)"/>
      <use xlink:href="#DejaVuSans-6e" transform="translate(892.009766 0)"/>
      <use xlink:href="#DejaVuSans-73" transform="translate(955.388672 0)"/>
     </g>
    </g>
   </g>
   <g id="matplotlib.axis_2">
    <g id="ytick_1">
     <g id="line2d_13">
      <path d="M 57.6 271.239553 
L 414.72 271.239553 
" clip-path="url(#ped47b4078b)" style="fill: none; stroke-dasharray: 2.96,1.28; stroke-dashoffset: 0; stroke: #b0b0b0; stroke-opacity: 0.6; stroke-width: 0.8"/>
     </g>
     <g id="line2d_14">
      <defs>
       <path id="m46b4118aab" d="M 0 0 
L -3.5 0 
" style="stroke: #000000; stroke-width: 0.8"/>
      </defs>
      <g>
       <use xlink:href="#m46b4118aab" x="57.6" y="271.239553" style="stroke: #000000; stroke-width: 0.8"/>
      </g>
     </g>
     <g id="text_8">
      <!-- 4000 -->
      <g transform="translate(25.15 275.038772) scale(0.1 -0.1)">
       <use xlink:href="#DejaVuSans-34"/>
       <use xlink:href="#DejaVuSans-30" transform="translate(63.623047 0)"/>
       <use xlink:href="#DejaVuSans-30" transform="translate(127.246094 0)"/>
       <use xlink:href="#DejaVuSans-30" transform="translate(190.869141 0)"/>
      </g>
     </g>
    </g>
    <g id="ytick_2">
     <g id="line2d_15">
      <path d="M 57.6 221.35654 
L 414.72 221.35654 
" clip-path="url(#ped47b4078b)" style="fill: none; stroke-dasharray: 2.96,1.28; stroke-dashoffset: 0; stroke: #b0b0b0; stroke-opacity: 0.6; stroke-width: 0.8"/>
     </g>
     <g id="line2d_16">
      <g>
       <use xlink:href="#m46b4118aab" x="57.6" y="221.35654" style="stroke: #000000; stroke-width: 0.8"/>
      </g>
     </g>
     <g id="text_9">
      <!-- 6000 -->
      <g transform="translate(25.15 225.155759) scale(0.1 -0.1)">
       <defs>
        <path id="DejaVuSans-36" d="M 2113 2584 
Q 1688 2584 1439 2293 
Q 1191 2003 1191 1497 
Q 1191 994 1439 701 
Q 1688 409 2113 409 
Q 2538 409 2786 701 
Q 3034 994 3034 1497 
Q 3034 2003 2786 2293 
Q 2538 2584 2113 2584 
z
M 3366 4563 
L 3366 3988 
Q 3128 4100 2886 4159 
Q 2644 4219 2406 4219 
Q 1781 4219 1451 3797 
Q 1122 3375 1075 2522 
Q 1259 2794 1537 2939 
Q 1816 3084 2150 3084 
Q 2853 3084 3261 2657 
Q 3669 2231 3669 1497 
Q 3669 778 3244 343 
Q 2819 -91 2113 -91 
Q 1303 -91 875 529 
Q 447 1150 447 2328 
Q 447 3434 972 4092 
Q 1497 4750 2381 4750 
Q 2619 4750 2861 4703 
Q 3103 4656 3366 4563 
z
" transform="scale(0.015625)"/>
       </defs>
       <use xlink:href="#DejaVuSans-36"/>
       <use xlink:href="#DejaVuSans-30" transform="translate(63.623047 0)"/>
       <use xlink:href="#DejaVuSans-30" transform="translate(127.246094 0)"/>
       <use xlink:href="#DejaVuSans-30" transform="translate(190.869141 0)"/>
      </g>
     </g>
    </g>
    <g id="ytick_3">
     <g id="line2d_17">
      <path d="M 57.6 171.473527 
L 414.72 171.473527 
" clip-path="url(#ped47b4078b)" style="fill: none; stroke-dasharray: 2.96,1.28; stroke-dashoffset: 0; stroke: #b0b0b0; stroke-opacity: 0.6; stroke-width: 0.8"/>
     </g>
     <g id="line2d_18">
      <g>
       <use xlink:href="#m46b4118aab" x="57.6" y="171.473527" style="stroke: #000000; stroke-width: 0.8"/>
      </g>
     </g>
     <g id="text_10">
      <!-- 8000 -->
      <g transform="translate(25.15 175.272746) scale(0.1 -0.1)">
       <defs>
        <path id="DejaVuSans-38" d="M 2034 2216 
Q 1584 2216 1326 1975 
Q 1069 1734 1069 1313 
Q 1069 891 1326 650 
Q 1584 409 2034 409 
Q 2484 409 2743 651 
Q 3003 894 3003 1313 
Q 3003 1734 2745 1975 
Q 2488 2216 2034 2216 
z
M 1403 2484 
Q 997 2584 770 2862 
Q 544 3141 544 3541 
Q 544 4100 942 4425 
Q 1341 4750 2034 4750 
Q 2731 4750 3128 4425 
Q 3525 4100 3525 3541 
Q 3525 3141 3298 2862 
Q 3072 2584 2669 2484 
Q 3125 2378 3379 2068 
Q 3634 1759 3634 1313 
Q 3634 634 3220 271 
Q 2806 -91 2034 -91 
Q 1263 -91 848 271 
Q 434 634 434 1313 
Q 434 1759 690 2068 
Q 947 2378 1403 2484 
z
M 1172 3481 
Q 1172 3119 1398 2916 
Q 1625 2713 2034 2713 
Q 2441 2713 2670 2916 
Q 2900 3119 2900 3481 
Q 2900 3844 2670 4047 
Q 2441 4250 2034 4250 
Q 1625 4250 1398 4047 
Q 1172 3844 1172 3481 
z
" transform="scale(0.015625)"/>
       </defs>
       <use xlink:href="#DejaVuSans-38"/>
       <use xlink:href="#DejaVuSans-30" transform="translate(63.623047 0)"/>
       <use xlink:href="#DejaVuSans-30" transform="translate(127.246094 0)"/>
       <use xlink:href="#DejaVuSans-30" transform="translate(190.869141 0)"/>
      </g>
     </g>
    </g>
    <g id="ytick_4">
     <g id="line2d_19">
      <path d="M 57.6 121.590514 
L 414.72 121.590514 
" clip-path="url(#ped47b4078b)" style="fill: none; stroke-dasharray: 2.96,1.28; stroke-dashoffset: 0; stroke: #b0b0b0; stroke-opacity: 0.6; stroke-width: 0.8"/>
     </g>
     <g id="line2d_20">
      <g>
       <use xlink:href="#m46b4118aab" x="57.6" y="121.590514" style="stroke: #000000; stroke-width: 0.8"/>
      </g>
     </g>
     <g id="text_11">
      <!-- 10000 -->
      <g transform="translate(18.7875 125.389733) scale(0.1 -0.1)">
       <use xlink:href="#DejaVuSans-31"/>
       <use xlink:href="#DejaVuSans-30" transform="translate(63.623047 0)"/>
       <use xlink:href="#DejaVuSans-30" transform="translate(127.246094 0)"/>
       <use xlink:href="#DejaVuSans-30" transform="translate(190.869141 0)"/>
       <use xlink:href="#DejaVuSans-30" transform="translate(254.492188 0)"/>
      </g>
     </g>
    </g>
    <g id="ytick_5">
     <g id="line2d_21">
      <path d="M 57.6 71.707501 
L 414.72 71.707501 
" clip-path="url(#ped47b4078b)" style="fill: none; stroke-dasharray: 2.96,1.28; stroke-dashoffset: 0; stroke: #b0b0b0; stroke-opacity: 0.6; stroke-width: 0.8"/>
     </g>
     <g id="line2d_22">
      <g>
       <use xlink:href="#m46b4118aab" x="57.6" y="71.707501" style="stroke: #000000; stroke-width: 0.8"/>
      </g>
     </g>
     <g id="text_12">
      <!-- 12000 -->
      <g transform="translate(18.7875 75.50672) scale(0.1 -0.1)">
       <use xlink:href="#DejaVuSans-31"/>
       <use xlink:href="#DejaVuSans-32" transform="translate(63.623047 0)"/>
       <use xlink:href="#DejaVuSans-30" transform="translate(127.246094 0)"/>
       <use xlink:href="#DejaVuSans-30" transform="translate(190.869141 0)"/>
       <use xlink:href="#DejaVuSans-30" transform="translate(254.492188 0)"/>
      </g>
     </g>
    </g>
    <g id="text_13">
     <!-- Total Unique File Extensions -->
     <g transform="translate(12.707812 244.127219) rotate(-90) scale(0.1 -0.1)">
      <defs>
       <path id="DejaVuSans-55" d="M 556 4666 
L 1191 4666 
L 1191 1831 
Q 1191 1081 1462 751 
Q 1734 422 2344 422 
Q 2950 422 3222 751 
Q 3494 1081 3494 1831 
L 3494 4666 
L 4128 4666 
L 4128 1753 
Q 4128 841 3676 375 
Q 3225 -91 2344 -91 
Q 1459 -91 1007 375 
Q 556 841 556 1753 
L 556 4666 
z
" transform="scale(0.015625)"/>
       <path id="DejaVuSans-71" d="M 947 1747 
Q 947 1113 1208 752 
Q 1469 391 1925 391 
Q 2381 391 2643 752 
Q 2906 1113 2906 1747 
Q 2906 2381 2643 2742 
Q 2381 3103 1925 3103 
Q 1469 3103 1208 2742 
Q 947 2381 947 1747 
z
M 2906 525 
Q 2725 213 2448 61 
Q 2172 -91 1784 -91 
Q 1150 -91 751 415 
Q 353 922 353 1747 
Q 353 2572 751 3078 
Q 1150 3584 1784 3584 
Q 2172 3584 2448 3432 
Q 2725 3281 2906 2969 
L 2906 3500 
L 3481 3500 
L 3481 -1331 
L 2906 -1331 
L 2906 525 
z
" transform="scale(0.015625)"/>
       <path id="DejaVuSans-75" d="M 544 1381 
L 544 3500 
L 1119 3500 
L 1119 1403 
Q 1119 906 1312 657 
Q 1506 409 1894 409 
Q 2359 409 2629 706 
Q 2900 1003 2900 1516 
L 2900 3500 
L 3475 3500 
L 3475 0 
L 2900 0 
L 2900 538 
Q 2691 219 2414 64 
Q 2138 -91 1772 -91 
Q 1169 -91 856 284 
Q 544 659 544 1381 
z
M 1991 3584 
L 1991 3584 
z
" transform="scale(0.015625)"/>
      </defs>
      <use xlink:href="#DejaVuSans-54"/>
      <use xlink:href="#DejaVuSans-6f" transform="translate(44.083984 0)"/>
      <use xlink:href="#DejaVuSans-74" transform="translate(105.265625 0)"/>
      <use xlink:href="#DejaVuSans-61" transform="translate(144.474609 0)"/>
      <use xlink:href="#DejaVuSans-6c" transform="translate(205.753906 0)"/>
      <use xlink:href="#DejaVuSans-20" transform="translate(233.537109 0)"/>
      <use xlink:href="#DejaVuSans-55" transform="translate(265.324219 0)"/>
      <use xlink:href="#DejaVuSans-6e" transform="translate(338.517578 0)"/>
      <use xlink:href="#DejaVuSans-69" transform="translate(401.896484 0)"/>
      <use xlink:href="#DejaVuSans-71" transform="translate(429.679688 0)"/>
      <use xlink:href="#DejaVuSans-75" transform="translate(493.15625 0)"/>
      <use xlink:href="#DejaVuSans-65" transform="translate(556.535156 0)"/>
      <use xlink:href="#DejaVuSans-20" transform="translate(618.058594 0)"/>
      <use xlink:href="#DejaVuSans-46" transform="translate(649.845703 0)"/>
      <use xlink:href="#DejaVuSans-69" transform="translate(700.115234 0)"/>
      <use xlink:href="#DejaVuSans-6c" transform="translate(727.898438 0)"/>
      <use xlink:href="#DejaVuSans-65" transform="translate(755.681641 0)"/>
      <use xlink:href="#DejaVuSans-20" transform="translate(817.205078 0)"/>
      <use xlink:href="#DejaVuSans-45" transform="translate(848.992188 0)"/>
      <use xlink:href="#DejaVuSans-78" transform="translate(912.175781 0)"/>
      <use xlink:href="#DejaVuSans-74" transform="translate(971.355469 0)"/>
      <use xlink:href="#DejaVuSans-65" transform="translate(1010.564453 0)"/>
      <use xlink:href="#DejaVuSans-6e" transform="translate(1072.087891 0)"/>
      <use xlink:href="#DejaVuSans-73" transform="translate(1135.466797 0)"/>
      <use xlink:href="#DejaVuSans-69" transform="translate(1187.566406 0)"/>
      <use xlink:href="#DejaVuSans-6f" transform="translate(1215.349609 0)"/>
      <use xlink:href="#DejaVuSans-6e" transform="translate(1276.53125 0)"/>
      <use xlink:href="#DejaVuSans-73" transform="translate(1339.910156 0)"/>
     </g>
    </g>
   </g>
   <g id="line2d_23">
    <path d="M 73.832727 267.777235 
L 77.112066 254.481032 
L 80.391405 243.562506 
L 83.670744 234.298911 
L 86.950083 226.253974 
L 90.229421 219.144018 
L 93.50876 212.774168 
L 96.788099 207.004766 
L 100.067438 201.732299 
L 103.346777 196.87791 
L 106.626116 192.380138 
L 109.905455 188.190155 
L 113.184793 184.268521 
L 116.464132 180.582921 
L 119.743471 177.106549 
L 123.02281 173.816921 
L 126.302149 170.694991 
L 129.581488 167.724488 
L 132.860826 164.8914 
L 136.140165 162.183572 
L 139.419504 159.590397 
L 142.698843 157.102558 
L 145.978182 154.711831 
L 149.257521 152.410917 
L 152.53686 150.193314 
L 155.816198 148.053197 
L 159.095537 145.985334 
L 162.374876 143.985006 
L 165.654215 142.047939 
L 168.933554 140.170256 
L 172.212893 138.348423 
L 175.492231 136.579214 
L 178.77157 134.859673 
L 182.050909 133.187088 
L 185.330248 131.558963 
L 188.609587 129.972994 
L 191.888926 128.427054 
L 195.168264 126.919172 
L 198.447603 125.447519 
L 201.726942 124.010395 
L 205.006281 122.606216 
L 208.28562 121.233506 
L 211.564959 119.890885 
L 214.844298 118.577063 
L 218.123636 117.29083 
L 221.402975 116.03105 
L 224.682314 114.796659 
L 227.961653 113.586652 
L 231.240992 112.400084 
L 234.520331 111.236066 
L 237.799669 110.093756 
L 241.079008 108.972359 
L 244.358347 107.871122 
L 247.637686 106.789335 
L 250.917025 105.726321 
L 254.196364 104.681441 
L 257.475702 103.654086 
L 260.755041 102.643678 
L 264.03438 101.649666 
L 267.313719 100.671528 
L 270.593058 99.708764 
L 273.872397 98.760898 
L 277.151736 97.827476 
L 280.431074 96.908065 
L 283.710413 96.00225 
L 286.989752 95.109635 
L 290.269091 94.229841 
L 293.54843 93.362504 
L 296.827769 92.507278 
L 300.107107 91.663827 
L 303.386446 90.831833 
L 306.665785 90.010989 
L 309.945124 89.200998 
L 313.224463 88.401579 
L 316.503802 87.612459 
L 319.78314 86.833376 
L 323.062479 86.064077 
L 326.341818 85.30432 
L 329.621157 84.553871 
L 332.900496 83.812505 
L 336.179835 83.080005 
L 339.459174 82.35616 
L 342.738512 81.64077 
L 346.017851 80.933638 
L 349.29719 80.234576 
L 352.576529 79.543403 
L 355.855868 78.859941 
L 359.135207 78.184021 
L 362.414545 77.515478 
L 365.693884 76.854154 
L 368.973223 76.199892 
L 372.252562 75.552546 
L 375.531901 74.911969 
L 378.81124 74.278021 
L 382.090579 73.650568 
L 385.369917 73.029476 
L 388.649256 72.414619 
L 391.928595 71.805873 
L 395.207934 71.203117 
L 398.487273 70.606234 
" clip-path="url(#ped47b4078b)" style="fill: none; stroke: #ff0000; stroke-width: 1.5; stroke-linecap: square"/>
   </g>
   <g id="patch_3">
    <path d="M 57.6 307.584 
L 57.6 41.472 
" style="fill: none; stroke: #000000; stroke-width: 0.8; stroke-linejoin: miter; stroke-linecap: square"/>
   </g>
   <g id="patch_4">
    <path d="M 414.72 307.584 
L 414.72 41.472 
" style="fill: none; stroke: #000000; stroke-width: 0.8; stroke-linejoin: miter; stroke-linecap: square"/>
   </g>
   <g id="patch_5">
    <path d="M 57.6 307.584 
L 414.72 307.584 
" style="fill: none; stroke: #000000; stroke-width: 0.8; stroke-linejoin: miter; stroke-linecap: square"/>
   </g>
   <g id="patch_6">
    <path d="M 57.6 41.472 
L 414.72 41.472 
" style="fill: none; stroke: #000000; stroke-width: 0.8; stroke-linejoin: miter; stroke-linecap: square"/>
   </g>
   <g id="text_14">
    <!-- Logarithmic Regression with Confidence Bounds -->
    <g transform="translate(91.430625 35.472) scale(0.12 -0.12)">
     <defs>
      <path id="DejaVuSans-4c" d="M 628 4666 
L 1259 4666 
L 1259 531 
L 3531 531 
L 3531 0 
L 628 0 
L 628 4666 
z
" transform="scale(0.015625)"/>
      <path id="DejaVuSans-67" d="M 2906 1791 
Q 2906 2416 2648 2759 
Q 2391 3103 1925 3103 
Q 1463 3103 1205 2759 
Q 947 2416 947 1791 
Q 947 1169 1205 825 
Q 1463 481 1925 481 
Q 2391 481 2648 825 
Q 2906 1169 2906 1791 
z
M 3481 434 
Q 3481 -459 3084 -895 
Q 2688 -1331 1869 -1331 
Q 1566 -1331 1297 -1286 
Q 1028 -1241 775 -1147 
L 775 -588 
Q 1028 -725 1275 -790 
Q 1522 -856 1778 -856 
Q 2344 -856 2625 -561 
Q 2906 -266 2906 331 
L 2906 616 
Q 2728 306 2450 153 
Q 2172 0 1784 0 
Q 1141 0 747 490 
Q 353 981 353 1791 
Q 353 2603 747 3093 
Q 1141 3584 1784 3584 
Q 2172 3584 2450 3431 
Q 2728 3278 2906 2969 
L 2906 3500 
L 3481 3500 
L 3481 434 
z
" transform="scale(0.015625)"/>
      <path id="DejaVuSans-72" d="M 2631 2963 
Q 2534 3019 2420 3045 
Q 2306 3072 2169 3072 
Q 1681 3072 1420 2755 
Q 1159 2438 1159 1844 
L 1159 0 
L 581 0 
L 581 3500 
L 1159 3500 
L 1159 2956 
Q 1341 3275 1631 3429 
Q 1922 3584 2338 3584 
Q 2397 3584 2469 3576 
Q 2541 3569 2628 3553 
L 2631 2963 
z
" transform="scale(0.015625)"/>
      <path id="DejaVuSans-68" d="M 3513 2113 
L 3513 0 
L 2938 0 
L 2938 2094 
Q 2938 2591 2744 2837 
Q 2550 3084 2163 3084 
Q 1697 3084 1428 2787 
Q 1159 2491 1159 1978 
L 1159 0 
L 581 0 
L 581 4863 
L 1159 4863 
L 1159 2956 
Q 1366 3272 1645 3428 
Q 1925 3584 2291 3584 
Q 2894 3584 3203 3211 
Q 3513 2838 3513 2113 
z
" transform="scale(0.015625)"/>
      <path id="DejaVuSans-6d" d="M 3328 2828 
Q 3544 3216 3844 3400 
Q 4144 3584 4550 3584 
Q 5097 3584 5394 3201 
Q 5691 2819 5691 2113 
L 5691 0 
L 5113 0 
L 5113 2094 
Q 5113 2597 4934 2840 
Q 4756 3084 4391 3084 
Q 3944 3084 3684 2787 
Q 3425 2491 3425 1978 
L 3425 0 
L 2847 0 
L 2847 2094 
Q 2847 2600 2669 2842 
Q 2491 3084 2119 3084 
Q 1678 3084 1418 2786 
Q 1159 2488 1159 1978 
L 1159 0 
L 581 0 
L 581 3500 
L 1159 3500 
L 1159 2956 
Q 1356 3278 1631 3431 
Q 1906 3584 2284 3584 
Q 2666 3584 2933 3390 
Q 3200 3197 3328 2828 
z
" transform="scale(0.015625)"/>
      <path id="DejaVuSans-63" d="M 3122 3366 
L 3122 2828 
Q 2878 2963 2633 3030 
Q 2388 3097 2138 3097 
Q 1578 3097 1268 2742 
Q 959 2388 959 1747 
Q 959 1106 1268 751 
Q 1578 397 2138 397 
Q 2388 397 2633 464 
Q 2878 531 3122 666 
L 3122 134 
Q 2881 22 2623 -34 
Q 2366 -91 2075 -91 
Q 1284 -91 818 406 
Q 353 903 353 1747 
Q 353 2603 823 3093 
Q 1294 3584 2113 3584 
Q 2378 3584 2631 3529 
Q 2884 3475 3122 3366 
z
" transform="scale(0.015625)"/>
      <path id="DejaVuSans-52" d="M 2841 2188 
Q 3044 2119 3236 1894 
Q 3428 1669 3622 1275 
L 4263 0 
L 3584 0 
L 2988 1197 
Q 2756 1666 2539 1819 
Q 2322 1972 1947 1972 
L 1259 1972 
L 1259 0 
L 628 0 
L 628 4666 
L 2053 4666 
Q 2853 4666 3247 4331 
Q 3641 3997 3641 3322 
Q 3641 2881 3436 2590 
Q 3231 2300 2841 2188 
z
M 1259 4147 
L 1259 2491 
L 2053 2491 
Q 2509 2491 2742 2702 
Q 2975 2913 2975 3322 
Q 2975 3731 2742 3939 
Q 2509 4147 2053 4147 
L 1259 4147 
z
" transform="scale(0.015625)"/>
      <path id="DejaVuSans-77" d="M 269 3500 
L 844 3500 
L 1563 769 
L 2278 3500 
L 2956 3500 
L 3675 769 
L 4391 3500 
L 4966 3500 
L 4050 0 
L 3372 0 
L 2619 2869 
L 1863 0 
L 1184 0 
L 269 3500 
z
" transform="scale(0.015625)"/>
      <path id="DejaVuSans-43" d="M 4122 4306 
L 4122 3641 
Q 3803 3938 3442 4084 
Q 3081 4231 2675 4231 
Q 1875 4231 1450 3742 
Q 1025 3253 1025 2328 
Q 1025 1406 1450 917 
Q 1875 428 2675 428 
Q 3081 428 3442 575 
Q 3803 722 4122 1019 
L 4122 359 
Q 3791 134 3420 21 
Q 3050 -91 2638 -91 
Q 1578 -91 968 557 
Q 359 1206 359 2328 
Q 359 3453 968 4101 
Q 1578 4750 2638 4750 
Q 3056 4750 3426 4639 
Q 3797 4528 4122 4306 
z
" transform="scale(0.015625)"/>
      <path id="DejaVuSans-66" d="M 2375 4863 
L 2375 4384 
L 1825 4384 
Q 1516 4384 1395 4259 
Q 1275 4134 1275 3809 
L 1275 3500 
L 2222 3500 
L 2222 3053 
L 1275 3053 
L 1275 0 
L 697 0 
L 697 3053 
L 147 3053 
L 147 3500 
L 697 3500 
L 697 3744 
Q 697 4328 969 4595 
Q 1241 4863 1831 4863 
L 2375 4863 
z
" transform="scale(0.015625)"/>
      <path id="DejaVuSans-64" d="M 2906 2969 
L 2906 4863 
L 3481 4863 
L 3481 0 
L 2906 0 
L 2906 525 
Q 2725 213 2448 61 
Q 2172 -91 1784 -91 
Q 1150 -91 751 415 
Q 353 922 353 1747 
Q 353 2572 751 3078 
Q 1150 3584 1784 3584 
Q 2172 3584 2448 3432 
Q 2725 3281 2906 2969 
z
M 947 1747 
Q 947 1113 1208 752 
Q 1469 391 1925 391 
Q 2381 391 2643 752 
Q 2906 1113 2906 1747 
Q 2906 2381 2643 2742 
Q 2381 3103 1925 3103 
Q 1469 3103 1208 2742 
Q 947 2381 947 1747 
z
" transform="scale(0.015625)"/>
      <path id="DejaVuSans-42" d="M 1259 2228 
L 1259 519 
L 2272 519 
Q 2781 519 3026 730 
Q 3272 941 3272 1375 
Q 3272 1813 3026 2020 
Q 2781 2228 2272 2228 
L 1259 2228 
z
M 1259 4147 
L 1259 2741 
L 2194 2741 
Q 2656 2741 2882 2914 
Q 3109 3088 3109 3444 
Q 3109 3797 2882 3972 
Q 2656 4147 2194 4147 
L 1259 4147 
z
M 628 4666 
L 2241 4666 
Q 2963 4666 3353 4366 
Q 3744 4066 3744 3513 
Q 3744 3084 3544 2831 
Q 3344 2578 2956 2516 
Q 3422 2416 3680 2098 
Q 3938 1781 3938 1306 
Q 3938 681 3513 340 
Q 3088 0 2303 0 
L 628 0 
L 628 4666 
z
" transform="scale(0.015625)"/>
     </defs>
     <use xlink:href="#DejaVuSans-4c"/>
     <use xlink:href="#DejaVuSans-6f" transform="translate(53.962891 0)"/>
     <use xlink:href="#DejaVuSans-67" transform="translate(115.144531 0)"/>
     <use xlink:href="#DejaVuSans-61" transform="translate(178.621094 0)"/>
     <use xlink:href="#DejaVuSans-72" transform="translate(239.900391 0)"/>
     <use xlink:href="#DejaVuSans-69" transform="translate(281.013672 0)"/>
     <use xlink:href="#DejaVuSans-74" transform="translate(308.796875 0)"/>
     <use xlink:href="#DejaVuSans-68" transform="translate(348.005859 0)"/>
     <use xlink:href="#DejaVuSans-6d" transform="translate(411.384766 0)"/>
     <use xlink:href="#DejaVuSans-69" transform="translate(508.796875 0)"/>
     <use xlink:href="#DejaVuSans-63" transform="translate(536.580078 0)"/>
     <use xlink:href="#DejaVuSans-20" transform="translate(591.560547 0)"/>
     <use xlink:href="#DejaVuSans-52" transform="translate(623.347656 0)"/>
     <use xlink:href="#DejaVuSans-65" transform="translate(688.330078 0)"/>
     <use xlink:href="#DejaVuSans-67" transform="translate(749.853516 0)"/>
     <use xlink:href="#DejaVuSans-72" transform="translate(813.330078 0)"/>
     <use xlink:href="#DejaVuSans-65" transform="translate(852.193359 0)"/>
     <use xlink:href="#DejaVuSans-73" transform="translate(913.716797 0)"/>
     <use xlink:href="#DejaVuSans-73" transform="translate(965.816406 0)"/>
     <use xlink:href="#DejaVuSans-69" transform="translate(1017.916016 0)"/>
     <use xlink:href="#DejaVuSans-6f" transform="translate(1045.699219 0)"/>
     <use xlink:href="#DejaVuSans-6e" transform="translate(1106.880859 0)"/>
     <use xlink:href="#DejaVuSans-20" transform="translate(1170.259766 0)"/>
     <use xlink:href="#DejaVuSans-77" transform="translate(1202.046875 0)"/>
     <use xlink:href="#DejaVuSans-69" transform="translate(1283.833984 0)"/>
     <use xlink:href="#DejaVuSans-74" transform="translate(1311.617188 0)"/>
     <use xlink:href="#DejaVuSans-68" transform="translate(1350.826172 0)"/>
     <use xlink:href="#DejaVuSans-20" transform="translate(1414.205078 0)"/>
     <use xlink:href="#DejaVuSans-43" transform="translate(1445.992188 0)"/>
     <use xlink:href="#DejaVuSans-6f" transform="translate(1515.816406 0)"/>
     <use xlink:href="#DejaVuSans-6e" transform="translate(1576.998047 0)"/>
     <use xlink:href="#DejaVuSans-66" transform="translate(1640.376953 0)"/>
     <use xlink:href="#DejaVuSans-69" transform="translate(1675.582031 0)"/>
     <use xlink:href="#DejaVuSans-64" transform="translate(1703.365234 0)"/>
     <use xlink:href="#DejaVuSans-65" transform="translate(1766.841797 0)"/>
     <use xlink:href="#DejaVuSans-6e" transform="translate(1828.365234 0)"/>
     <use xlink:href="#DejaVuSans-63" transform="translate(1891.744141 0)"/>
     <use xlink:href="#DejaVuSans-65" transform="translate(1946.724609 0)"/>
     <use xlink:href="#DejaVuSans-20" transform="translate(2008.248047 0)"/>
     <use xlink:href="#DejaVuSans-42" transform="translate(2040.035156 0)"/>
     <use xlink:href="#DejaVuSans-6f" transform="translate(2108.638672 0)"/>
     <use xlink:href="#DejaVuSans-75" transform="translate(2169.820312 0)"/>
     <use xlink:href="#DejaVuSans-6e" transform="translate(2233.199219 0)"/>
     <use xlink:href="#DejaVuSans-64" transform="translate(2296.578125 0)"/>
     <use xlink:href="#DejaVuSans-73" transform="translate(2360.054688 0)"/>
    </g>
   </g>
   <g id="legend_1">
    <g id="patch_7">
     <path d="M 227.361094 303.084 
L 408.42 303.084 
Q 410.22 303.084 410.22 301.284 
L 410.22 183.291188 
Q 410.22 181.491187 408.42 181.491187 
L 227.361094 181.491187 
Q 225.561094 181.491187 225.561094 183.291188 
L 225.561094 301.284 
Q 225.561094 303.084 227.361094 303.084 
z
" style="fill: #ffffff; opacity: 0.8; stroke: #cccccc; stroke-linejoin: miter"/>
    </g>
    <g id="PathCollection_8">
     <g>
      <use xlink:href="#m5629ff5e0a" x="238.161094" y="189.567281" style="fill: #1f77b4; stroke: #1f77b4"/>
     </g>
    </g>
    <g id="text_15">
     <!-- wikidata -->
     <g transform="translate(254.361094 191.929781) scale(0.09 -0.09)">
      <defs>
       <path id="DejaVuSans-6b" d="M 581 4863 
L 1159 4863 
L 1159 1991 
L 2875 3500 
L 3609 3500 
L 1753 1863 
L 3688 0 
L 2938 0 
L 1159 1709 
L 1159 0 
L 581 0 
L 581 4863 
z
" transform="scale(0.015625)"/>
      </defs>
      <use xlink:href="#DejaVuSans-77"/>
      <use xlink:href="#DejaVuSans-69" transform="translate(81.787109 0)"/>
      <use xlink:href="#DejaVuSans-6b" transform="translate(109.570312 0)"/>
      <use xlink:href="#DejaVuSans-69" transform="translate(167.480469 0)"/>
      <use xlink:href="#DejaVuSans-64" transform="translate(195.263672 0)"/>
      <use xlink:href="#DejaVuSans-61" transform="translate(258.740234 0)"/>
      <use xlink:href="#DejaVuSans-74" transform="translate(320.019531 0)"/>
      <use xlink:href="#DejaVuSans-61" transform="translate(359.228516 0)"/>
     </g>
    </g>
    <g id="PathCollection_9">
     <g>
      <use xlink:href="#m1aedf56bcd" x="238.161094" y="202.777594" style="fill: #ff7f0e; stroke: #ff7f0e"/>
     </g>
    </g>
    <g id="text_16">
     <!-- trid -->
     <g transform="translate(254.361094 205.140094) scale(0.09 -0.09)">
      <use xlink:href="#DejaVuSans-74"/>
      <use xlink:href="#DejaVuSans-72" transform="translate(39.208984 0)"/>
      <use xlink:href="#DejaVuSans-69" transform="translate(80.322266 0)"/>
      <use xlink:href="#DejaVuSans-64" transform="translate(108.105469 0)"/>
     </g>
    </g>
    <g id="PathCollection_10">
     <g>
      <use xlink:href="#med06a7a00f" x="238.161094" y="215.987906" style="fill: #2ca02c; stroke: #2ca02c"/>
     </g>
    </g>
    <g id="text_17">
     <!-- ffw -->
     <g transform="translate(254.361094 218.350406) scale(0.09 -0.09)">
      <use xlink:href="#DejaVuSans-66"/>
      <use xlink:href="#DejaVuSans-66" transform="translate(35.205078 0)"/>
      <use xlink:href="#DejaVuSans-77" transform="translate(68.660156 0)"/>
     </g>
    </g>
    <g id="PathCollection_11">
     <g>
      <use xlink:href="#ma69a4bf63f" x="238.161094" y="229.198219" style="fill: #d62728; stroke: #d62728"/>
     </g>
    </g>
    <g id="text_18">
     <!-- pronom -->
     <g transform="translate(254.361094 231.560719) scale(0.09 -0.09)">
      <defs>
       <path id="DejaVuSans-70" d="M 1159 525 
L 1159 -1331 
L 581 -1331 
L 581 3500 
L 1159 3500 
L 1159 2969 
Q 1341 3281 1617 3432 
Q 1894 3584 2278 3584 
Q 2916 3584 3314 3078 
Q 3713 2572 3713 1747 
Q 3713 922 3314 415 
Q 2916 -91 2278 -91 
Q 1894 -91 1617 61 
Q 1341 213 1159 525 
z
M 3116 1747 
Q 3116 2381 2855 2742 
Q 2594 3103 2138 3103 
Q 1681 3103 1420 2742 
Q 1159 2381 1159 1747 
Q 1159 1113 1420 752 
Q 1681 391 2138 391 
Q 2594 391 2855 752 
Q 3116 1113 3116 1747 
z
" transform="scale(0.015625)"/>
      </defs>
      <use xlink:href="#DejaVuSans-70"/>
      <use xlink:href="#DejaVuSans-72" transform="translate(63.476562 0)"/>
      <use xlink:href="#DejaVuSans-6f" transform="translate(102.339844 0)"/>
      <use xlink:href="#DejaVuSans-6e" transform="translate(163.521484 0)"/>
      <use xlink:href="#DejaVuSans-6f" transform="translate(226.900391 0)"/>
      <use xlink:href="#DejaVuSans-6d" transform="translate(288.082031 0)"/>
     </g>
    </g>
    <g id="PathCollection_12">
     <g>
      <use xlink:href="#m2f73ffbe42" x="238.161094" y="242.408531" style="fill: #9467bd; stroke: #9467bd"/>
     </g>
    </g>
    <g id="text_19">
     <!-- githublinguist -->
     <g transform="translate(254.361094 244.771031) scale(0.09 -0.09)">
      <defs>
       <path id="DejaVuSans-62" d="M 3116 1747 
Q 3116 2381 2855 2742 
Q 2594 3103 2138 3103 
Q 1681 3103 1420 2742 
Q 1159 2381 1159 1747 
Q 1159 1113 1420 752 
Q 1681 391 2138 391 
Q 2594 391 2855 752 
Q 3116 1113 3116 1747 
z
M 1159 2969 
Q 1341 3281 1617 3432 
Q 1894 3584 2278 3584 
Q 2916 3584 3314 3078 
Q 3713 2572 3713 1747 
Q 3713 922 3314 415 
Q 2916 -91 2278 -91 
Q 1894 -91 1617 61 
Q 1341 213 1159 525 
L 1159 0 
L 581 0 
L 581 4863 
L 1159 4863 
L 1159 2969 
z
" transform="scale(0.015625)"/>
      </defs>
      <use xlink:href="#DejaVuSans-67"/>
      <use xlink:href="#DejaVuSans-69" transform="translate(63.476562 0)"/>
      <use xlink:href="#DejaVuSans-74" transform="translate(91.259766 0)"/>
      <use xlink:href="#DejaVuSans-68" transform="translate(130.46875 0)"/>
      <use xlink:href="#DejaVuSans-75" transform="translate(193.847656 0)"/>
      <use xlink:href="#DejaVuSans-62" transform="translate(257.226562 0)"/>
      <use xlink:href="#DejaVuSans-6c" transform="translate(320.703125 0)"/>
      <use xlink:href="#DejaVuSans-69" transform="translate(348.486328 0)"/>
      <use xlink:href="#DejaVuSans-6e" transform="translate(376.269531 0)"/>
      <use xlink:href="#DejaVuSans-67" transform="translate(439.648438 0)"/>
      <use xlink:href="#DejaVuSans-75" transform="translate(503.125 0)"/>
      <use xlink:href="#DejaVuSans-69" transform="translate(566.503906 0)"/>
      <use xlink:href="#DejaVuSans-73" transform="translate(594.287109 0)"/>
      <use xlink:href="#DejaVuSans-74" transform="translate(646.386719 0)"/>
     </g>
    </g>
    <g id="PathCollection_13">
     <g>
      <use xlink:href="#me29cd27d1e" x="238.161094" y="255.618844" style="fill: #8c564b; stroke: #8c564b"/>
     </g>
    </g>
    <g id="text_20">
     <!-- tika -->
     <g transform="translate(254.361094 257.981344) scale(0.09 -0.09)">
      <use xlink:href="#DejaVuSans-74"/>
      <use xlink:href="#DejaVuSans-69" transform="translate(39.208984 0)"/>
      <use xlink:href="#DejaVuSans-6b" transform="translate(66.992188 0)"/>
      <use xlink:href="#DejaVuSans-61" transform="translate(123.152344 0)"/>
     </g>
    </g>
    <g id="PathCollection_14">
     <g>
      <use xlink:href="#m7904edd1c1" x="238.161094" y="268.829156" style="fill: #e377c2; stroke: #e377c2"/>
     </g>
    </g>
    <g id="text_21">
     <!-- fdd -->
     <g transform="translate(254.361094 271.191656) scale(0.09 -0.09)">
      <use xlink:href="#DejaVuSans-66"/>
      <use xlink:href="#DejaVuSans-64" transform="translate(35.205078 0)"/>
      <use xlink:href="#DejaVuSans-64" transform="translate(98.681641 0)"/>
     </g>
    </g>
    <g id="line2d_24">
     <path d="M 229.161094 281.251969 
L 238.161094 281.251969 
L 247.161094 281.251969 
" style="fill: none; stroke: #ff0000; stroke-width: 1.5; stroke-linecap: square"/>
    </g>
    <g id="text_22">
     <!-- Fit: y = 2455.93ln(x) + -14528.47 -->
     <g transform="translate(254.361094 284.401969) scale(0.09 -0.09)">
      <defs>
       <path id="DejaVuSans-3a" d="M 750 794 
L 1409 794 
L 1409 0 
L 750 0 
L 750 794 
z
M 750 3309 
L 1409 3309 
L 1409 2516 
L 750 2516 
L 750 3309 
z
" transform="scale(0.015625)"/>
       <path id="DejaVuSans-79" d="M 2059 -325 
Q 1816 -950 1584 -1140 
Q 1353 -1331 966 -1331 
L 506 -1331 
L 506 -850 
L 844 -850 
Q 1081 -850 1212 -737 
Q 1344 -625 1503 -206 
L 1606 56 
L 191 3500 
L 800 3500 
L 1894 763 
L 2988 3500 
L 3597 3500 
L 2059 -325 
z
" transform="scale(0.015625)"/>
       <path id="DejaVuSans-3d" d="M 678 2906 
L 4684 2906 
L 4684 2381 
L 678 2381 
L 678 2906 
z
M 678 1631 
L 4684 1631 
L 4684 1100 
L 678 1100 
L 678 1631 
z
" transform="scale(0.015625)"/>
       <path id="DejaVuSans-2e" d="M 684 794 
L 1344 794 
L 1344 0 
L 684 0 
L 684 794 
z
" transform="scale(0.015625)"/>
       <path id="DejaVuSans-39" d="M 703 97 
L 703 672 
Q 941 559 1184 500 
Q 1428 441 1663 441 
Q 2288 441 2617 861 
Q 2947 1281 2994 2138 
Q 2813 1869 2534 1725 
Q 2256 1581 1919 1581 
Q 1219 1581 811 2004 
Q 403 2428 403 3163 
Q 403 3881 828 4315 
Q 1253 4750 1959 4750 
Q 2769 4750 3195 4129 
Q 3622 3509 3622 2328 
Q 3622 1225 3098 567 
Q 2575 -91 1691 -91 
Q 1453 -91 1209 -44 
Q 966 3 703 97 
z
M 1959 2075 
Q 2384 2075 2632 2365 
Q 2881 2656 2881 3163 
Q 2881 3666 2632 3958 
Q 2384 4250 1959 4250 
Q 1534 4250 1286 3958 
Q 1038 3666 1038 3163 
Q 1038 2656 1286 2365 
Q 1534 2075 1959 2075 
z
" transform="scale(0.015625)"/>
       <path id="DejaVuSans-28" d="M 1984 4856 
Q 1566 4138 1362 3434 
Q 1159 2731 1159 2009 
Q 1159 1288 1364 580 
Q 1569 -128 1984 -844 
L 1484 -844 
Q 1016 -109 783 600 
Q 550 1309 550 2009 
Q 550 2706 781 3412 
Q 1013 4119 1484 4856 
L 1984 4856 
z
" transform="scale(0.015625)"/>
       <path id="DejaVuSans-29" d="M 513 4856 
L 1013 4856 
Q 1481 4119 1714 3412 
Q 1947 2706 1947 2009 
Q 1947 1309 1714 600 
Q 1481 -109 1013 -844 
L 513 -844 
Q 928 -128 1133 580 
Q 1338 1288 1338 2009 
Q 1338 2731 1133 3434 
Q 928 4138 513 4856 
z
" transform="scale(0.015625)"/>
       <path id="DejaVuSans-2b" d="M 2944 4013 
L 2944 2272 
L 4684 2272 
L 4684 1741 
L 2944 1741 
L 2944 0 
L 2419 0 
L 2419 1741 
L 678 1741 
L 678 2272 
L 2419 2272 
L 2419 4013 
L 2944 4013 
z
" transform="scale(0.015625)"/>
       <path id="DejaVuSans-2d" d="M 313 2009 
L 1997 2009 
L 1997 1497 
L 313 1497 
L 313 2009 
z
" transform="scale(0.015625)"/>
       <path id="DejaVuSans-37" d="M 525 4666 
L 3525 4666 
L 3525 4397 
L 1831 0 
L 1172 0 
L 2766 4134 
L 525 4134 
L 525 4666 
z
" transform="scale(0.015625)"/>
      </defs>
      <use xlink:href="#DejaVuSans-46"/>
      <use xlink:href="#DejaVuSans-69" transform="translate(50.269531 0)"/>
      <use xlink:href="#DejaVuSans-74" transform="translate(78.052734 0)"/>
      <use xlink:href="#DejaVuSans-3a" transform="translate(117.261719 0)"/>
      <use xlink:href="#DejaVuSans-20" transform="translate(150.953125 0)"/>
      <use xlink:href="#DejaVuSans-79" transform="translate(182.740234 0)"/>
      <use xlink:href="#DejaVuSans-20" transform="translate(241.919922 0)"/>
      <use xlink:href="#DejaVuSans-3d" transform="translate(273.707031 0)"/>
      <use xlink:href="#DejaVuSans-20" transform="translate(357.496094 0)"/>
      <use xlink:href="#DejaVuSans-32" transform="translate(389.283203 0)"/>
      <use xlink:href="#DejaVuSans-34" transform="translate(452.90625 0)"/>
      <use xlink:href="#DejaVuSans-35" transform="translate(516.529297 0)"/>
      <use xlink:href="#DejaVuSans-35" transform="translate(580.152344 0)"/>
      <use xlink:href="#DejaVuSans-2e" transform="translate(643.775391 0)"/>
      <use xlink:href="#DejaVuSans-39" transform="translate(675.5625 0)"/>
      <use xlink:href="#DejaVuSans-33" transform="translate(739.185547 0)"/>
      <use xlink:href="#DejaVuSans-6c" transform="translate(802.808594 0)"/>
      <use xlink:href="#DejaVuSans-6e" transform="translate(830.591797 0)"/>
      <use xlink:href="#DejaVuSans-28" transform="translate(893.970703 0)"/>
      <use xlink:href="#DejaVuSans-78" transform="translate(932.984375 0)"/>
      <use xlink:href="#DejaVuSans-29" transform="translate(992.164062 0)"/>
      <use xlink:href="#DejaVuSans-20" transform="translate(1031.177734 0)"/>
      <use xlink:href="#DejaVuSans-2b" transform="translate(1062.964844 0)"/>
      <use xlink:href="#DejaVuSans-20" transform="translate(1146.753906 0)"/>
      <use xlink:href="#DejaVuSans-2d" transform="translate(1178.541016 0)"/>
      <use xlink:href="#DejaVuSans-31" transform="translate(1214.625 0)"/>
      <use xlink:href="#DejaVuSans-34" transform="translate(1278.248047 0)"/>
      <use xlink:href="#DejaVuSans-35" transform="translate(1341.871094 0)"/>
      <use xlink:href="#DejaVuSans-32" transform="translate(1405.494141 0)"/>
      <use xlink:href="#DejaVuSans-38" transform="translate(1469.117188 0)"/>
      <use xlink:href="#DejaVuSans-2e" transform="translate(1532.740234 0)"/>
      <use xlink:href="#DejaVuSans-34" transform="translate(1564.527344 0)"/>
      <use xlink:href="#DejaVuSans-37" transform="translate(1628.150391 0)"/>
     </g>
    </g>
    <g id="patch_8">
     <path d="M 229.161094 297.612281 
L 247.161094 297.612281 
L 247.161094 291.312281 
L 229.161094 291.312281 
z
" style="fill: #ff0000; fill-opacity: 0.2; stroke: #ff0000; stroke-opacity: 0.2; stroke-linejoin: miter"/>
    </g>
    <g id="text_23">
     <!-- 95% Confidence Interval -->
     <g transform="translate(254.361094 297.612281) scale(0.09 -0.09)">
      <defs>
       <path id="DejaVuSans-25" d="M 4653 2053 
Q 4381 2053 4226 1822 
Q 4072 1591 4072 1178 
Q 4072 772 4226 539 
Q 4381 306 4653 306 
Q 4919 306 5073 539 
Q 5228 772 5228 1178 
Q 5228 1588 5073 1820 
Q 4919 2053 4653 2053 
z
M 4653 2450 
Q 5147 2450 5437 2106 
Q 5728 1763 5728 1178 
Q 5728 594 5436 251 
Q 5144 -91 4653 -91 
Q 4153 -91 3862 251 
Q 3572 594 3572 1178 
Q 3572 1766 3864 2108 
Q 4156 2450 4653 2450 
z
M 1428 4353 
Q 1159 4353 1004 4120 
Q 850 3888 850 3481 
Q 850 3069 1003 2837 
Q 1156 2606 1428 2606 
Q 1700 2606 1854 2837 
Q 2009 3069 2009 3481 
Q 2009 3884 1853 4118 
Q 1697 4353 1428 4353 
z
M 4250 4750 
L 4750 4750 
L 1831 -91 
L 1331 -91 
L 4250 4750 
z
M 1428 4750 
Q 1922 4750 2215 4408 
Q 2509 4066 2509 3481 
Q 2509 2891 2217 2550 
Q 1925 2209 1428 2209 
Q 931 2209 642 2551 
Q 353 2894 353 3481 
Q 353 4063 643 4406 
Q 934 4750 1428 4750 
z
" transform="scale(0.015625)"/>
       <path id="DejaVuSans-49" d="M 628 4666 
L 1259 4666 
L 1259 0 
L 628 0 
L 628 4666 
z
" transform="scale(0.015625)"/>
       <path id="DejaVuSans-76" d="M 191 3500 
L 800 3500 
L 1894 563 
L 2988 3500 
L 3597 3500 
L 2284 0 
L 1503 0 
L 191 3500 
z
" transform="scale(0.015625)"/>
      </defs>
      <use xlink:href="#DejaVuSans-39"/>
      <use xlink:href="#DejaVuSans-35" transform="translate(63.623047 0)"/>
      <use xlink:href="#DejaVuSans-25" transform="translate(127.246094 0)"/>
      <use xlink:href="#DejaVuSans-20" transform="translate(222.265625 0)"/>
      <use xlink:href="#DejaVuSans-43" transform="translate(254.052734 0)"/>
      <use xlink:href="#DejaVuSans-6f" transform="translate(323.876953 0)"/>
      <use xlink:href="#DejaVuSans-6e" transform="translate(385.058594 0)"/>
      <use xlink:href="#DejaVuSans-66" transform="translate(448.4375 0)"/>
      <use xlink:href="#DejaVuSans-69" transform="translate(483.642578 0)"/>
      <use xlink:href="#DejaVuSans-64" transform="translate(511.425781 0)"/>
      <use xlink:href="#DejaVuSans-65" transform="translate(574.902344 0)"/>
      <use xlink:href="#DejaVuSans-6e" transform="translate(636.425781 0)"/>
      <use xlink:href="#DejaVuSans-63" transform="translate(699.804688 0)"/>
      <use xlink:href="#DejaVuSans-65" transform="translate(754.785156 0)"/>
      <use xlink:href="#DejaVuSans-20" transform="translate(816.308594 0)"/>
      <use xlink:href="#DejaVuSans-49" transform="translate(848.095703 0)"/>
      <use xlink:href="#DejaVuSans-6e" transform="translate(877.587891 0)"/>
      <use xlink:href="#DejaVuSans-74" transform="translate(940.966797 0)"/>
      <use xlink:href="#DejaVuSans-65" transform="translate(980.175781 0)"/>
      <use xlink:href="#DejaVuSans-72" transform="translate(1041.699219 0)"/>
      <use xlink:href="#DejaVuSans-76" transform="translate(1082.8125 0)"/>
      <use xlink:href="#DejaVuSans-61" transform="translate(1141.992188 0)"/>
      <use xlink:href="#DejaVuSans-6c" transform="translate(1203.271484 0)"/>
     </g>
    </g>
   </g>
  </g>
 </g>
 <defs>
  <clipPath id="ped47b4078b">
   <rect x="57.6" y="41.472" width="357.12" height="266.112"/>
  </clipPath>
 </defs>
</svg>
